<?xml version="1.0" encoding="utf-8"?>
<!-- Generator: Adobe Illustrator 27.6.1, SVG Export Plug-In . SVG Version: 6.00 Build 0)  -->
<svg version="1.1" id="Vrstva_1" xmlns="http://www.w3.org/2000/svg" xmlns:xlink="http://www.w3.org/1999/xlink" x="0px" y="0px"
	 viewBox="0 0 241.5 338.7" style="enable-background:new 0 0 241.5 338.7;" xml:space="preserve">
<style type="text/css">
	.st0{fill:#C6CBC0;}
	.st1{fill:#707C62;}
</style>
<path class="st0" d="M241.1,121.2v2.8c-0.6,20.5-7.1,40.4-18.3,57.6L121,338.6L18.7,181.3C7.4,164.1,0.9,144,0.4,123.4v-2.8
	C0.4,53.5,55.3-0.8,122.7,0.2C188.3,1.2,241.4,55.5,241.1,121.2z"/>
<path class="st1" d="M188,159.1c-3.2-2.2-6-4.9-8.1-8.1l0,0c-1.1-1.6-1.6-3.4-1.6-5.3v-31.8l4.9-2c1.6-0.7,2.6-2.2,2.6-3.9
	s-1.1-3.2-2.7-3.8L118,79.3c-0.9-0.4-2-0.4-2.9,0l-66.7,24.9c-1.6,0.6-2.7,2.1-2.7,3.8s1,3.3,2.6,3.9l23.8,9.7v23
	c0,12.4,18.6,21.8,43.2,21.8s43.2-9.4,43.2-21.8v-22.4l12.4-5.1v28.7c0,1.9-0.6,3.8-1.7,5.4l-0.1,0.1c-1.9,2.8-4.2,5.2-7,7.1
	l-8.8,6.2l6.5,4.3c3.7,2.4,6.8,5.5,9.4,9.1l1.7,2.3l3.7,5.2l3.9-5l4.5-5.9c1.3-1.7,2.8-3.1,4.5-4.3l8.6-5.9L188,159.1L188,159.1z
	 M141.6,153.9c-7,3.2-16.3,4.9-26.3,4.9S96,157,89,153.9c-5.9-2.7-9.4-6.2-9.4-9.3v-20l35.3,14.3c0.5,0.2,1,0.3,1.6,0.3
	c0.5,0,1.1-0.1,1.6-0.3l32.8-13.6v19.3C150.9,147.7,147.4,151.2,141.6,153.9L141.6,153.9z M158.4,114.1l-10,4.2l-31.9,13.3
	l-32.7-13.3l-11.7-4.7l-13-5.3l57.4-21.5l56.1,21.5L158.4,114.1z M178.3,168.3c-0.5,0.5-1,1.1-1.4,1.7l-2.2,2.9
	c-1.2-1.6-2.5-3.1-3.9-4.6c-1.4-1.4-2.8-2.7-4.3-3.8c1.5-1.1,3-2.3,4.3-3.6c1.4-1.3,2.6-2.8,3.8-4.3c1.1,1.6,2.4,3,3.7,4.4
	c1.3,1.3,2.7,2.5,4.3,3.6C181,165.6,179.6,166.8,178.3,168.3L178.3,168.3z"/>
</svg>
