<?xml version="1.0" encoding="utf-8"?>
<!-- Generator: Adobe Illustrator 27.6.1, SVG Export Plug-In . SVG Version: 6.00 Build 0)  -->
<svg version="1.1" id="Vrstva_1" xmlns="http://www.w3.org/2000/svg" xmlns:xlink="http://www.w3.org/1999/xlink" x="0px" y="0px"
	 viewBox="0 0 241.5 338.7" style="enable-background:new 0 0 241.5 338.7;" xml:space="preserve">
<style type="text/css">
	.st0{fill:#C6CBC0;}
	.st1{fill:#707C62;}
</style>
<path class="st0" d="M241.1,121.2c0,0.9,0,1.9,0,2.8c-0.6,20.5-7.1,40.4-18.3,57.6L121,338.6L18.7,181.3
	C7.4,164.1,0.9,144,0.4,123.4c0-0.9,0-1.9,0-2.8C0.4,53.5,55.3-0.8,122.7,0.2C188.3,1.2,241.4,55.5,241.1,121.2z"/>
<g>
	<path class="st1" d="M77.9,174.9H65.5c-1.5,0-2.8-0.6-3.8-1.6c-1-1.1-1.5-2.4-1.5-3.9l2.5-61.5c0.1-2.9,2.4-5.1,5.3-5.1h7.9
		c2.9,0,5.2,2.3,5.3,5.1l2.1,61.5c0,1.5-0.5,2.8-1.5,3.9C80.8,174.3,79.4,174.9,77.9,174.9z M68,107.4c-0.4,0-0.7,0.3-0.7,0.7
		l-2.5,61.5c0,0.3,0.1,0.4,0.2,0.5s0.3,0.2,0.5,0.2h12.4c0.3,0,0.4-0.1,0.5-0.2c0.1-0.1,0.2-0.3,0.2-0.5l-2.1-61.5
		c0-0.4-0.3-0.7-0.7-0.7C75.8,107.4,68,107.4,68,107.4z"/>
	<path class="st1" d="M111.2,174.9H98.7c-1.5,0-2.8-0.6-3.8-1.6c-1-1.1-1.5-2.4-1.5-3.9l2.5-61.5c0.1-2.9,2.4-5.1,5.3-5.1h7.9
		c2.9,0,5.2,2.3,5.3,5.1l2.1,61.5c0,1.5-0.5,2.8-1.5,3.9C114,174.3,112.6,174.9,111.2,174.9z M101.2,107.4c-0.4,0-0.7,0.3-0.7,0.7
		L98,169.6c0,0.3,0.1,0.4,0.2,0.5s0.3,0.2,0.5,0.2h12.4c0.3,0,0.4-0.1,0.5-0.2c0.1-0.1,0.2-0.3,0.2-0.5l-2.1-61.5
		c0-0.4-0.3-0.7-0.7-0.7C109,107.4,101.2,107.4,101.2,107.4z"/>
	<path class="st1" d="M144.4,174.9H132c-1.5,0-2.8-0.6-3.8-1.6c-1-1.1-1.5-2.4-1.5-3.9l2.5-61.5c0.1-2.9,2.4-5.1,5.3-5.1h7.9
		c2.9,0,5.2,2.3,5.3,5.1l2.1,61.5c0,1.5-0.5,2.8-1.5,3.9C147.2,174.3,145.8,174.9,144.4,174.9z M134.4,107.4c-0.4,0-0.7,0.3-0.7,0.7
		l-2.5,61.5c0,0.3,0.1,0.4,0.2,0.5s0.3,0.2,0.5,0.2h12.4c0.3,0,0.4-0.1,0.5-0.2c0.1-0.1,0.2-0.3,0.2-0.5l-2.1-61.5
		c0-0.4-0.3-0.7-0.7-0.7C142.2,107.4,134.4,107.4,134.4,107.4z"/>
	<path class="st1" d="M177.6,174.9h-12.4c-1.5,0-2.8-0.6-3.8-1.6c-1-1.1-1.5-2.4-1.5-3.9l2.5-61.5c0.1-2.9,2.4-5.1,5.3-5.1h7.9
		c2.9,0,5.2,2.3,5.3,5.1l2.1,61.5c0,1.5-0.5,2.8-1.5,3.9C180.4,174.3,179,174.9,177.6,174.9z M167.6,107.4c-0.4,0-0.7,0.3-0.7,0.7
		l-2.5,61.5c0,0.3,0.1,0.4,0.2,0.5s0.3,0.2,0.5,0.2h12.4c0.3,0,0.4-0.1,0.5-0.2c0.1-0.1,0.2-0.3,0.2-0.5l-2.1-61.5
		c0-0.4-0.3-0.7-0.7-0.7C175.4,107.4,167.6,107.4,167.6,107.4z"/>
	<path class="st1" d="M183.8,98.1H57.7l0.1-0.2c0.6-1.3,0.6-2.8,0-4.1l-0.1-0.3h126.2l-0.1,0.3c-0.5,1.3-0.5,2.7,0,4L183.8,98.1z"/>
	<path class="st1" d="M189.9,183.2H51.6l0.1-0.4c0.5-1.3,0.5-2.7,0-4l-0.1-0.2h138.3l-0.2,0.7c-0.3,1-0.3,2.1,0,3.1L189.9,183.2z"/>
	<path class="st1" d="M178.1,88H63.3c-2,0-3.6-1.6-3.6-3.6V78c0-1.4,0.9-2.7,2.2-3.3l56.9-24.2c0.9-0.4,1.9-0.4,2.8,0l57.9,25.2
		c1.3,0.6,2.2,1.9,2.2,3.3v5.4C181.7,86.4,180.1,88,178.1,88z M64.3,83.5h112.9v-3.8L120.3,55l-56,23.7V83.5z"/>
</g>
</svg>
