<?xml version="1.0" encoding="utf-8"?>
<!-- Generator: Adobe Illustrator 27.6.1, SVG Export Plug-In . SVG Version: 6.00 Build 0)  -->
<svg version="1.1" id="Vrstva_1" xmlns="http://www.w3.org/2000/svg" xmlns:xlink="http://www.w3.org/1999/xlink" x="0px" y="0px"
	 viewBox="0 0 241.5 338.7" style="enable-background:new 0 0 241.5 338.7;" xml:space="preserve">
<style type="text/css">
	.st0{fill:#C6CBC0;}
	.st1{fill:#707C62;}
</style>
<path class="st0" d="M241.1,121.2c0,0.9,0,1.9,0,2.8c-0.6,20.5-7.1,40.4-18.3,57.6L121,338.6L18.7,181.3
	C7.4,164.1,0.9,144,0.4,123.4c0-0.9,0-1.9,0-2.8C0.4,53.5,55.3-0.8,122.7,0.2C188.3,1.2,241.4,55.5,241.1,121.2z"/>
<g>
	<path class="st1" d="M178.6,76.8H63c-8.7,0-15.8,6-15.9,13.4c0,0.1,0,0.2,0,0.3v60.8c0,7.5,7.1,13.7,15.9,13.7h115.6
		c8.7,0,15.8-6,15.9-13.4c0-0.1,0-0.2,0-0.3V90.5C194.5,83,187.4,76.8,178.6,76.8z M63,84.4h115.6c2.1,0,4,0.6,5.5,1.5L129.2,131
		c-4.1,3.3-10.9,3.4-15,0L58.3,85.4C59.6,84.8,61.2,84.4,63,84.4z M178.6,157.5H63c-4.6,0-8.4-2.8-8.4-6.2V92.2l54.8,44.7
		c3.4,2.8,7.8,4.2,12.2,4.2c4.4,0,8.9-1.4,12.3-4.2L187,93.3v58.1C187,154.6,183.1,157.5,178.6,157.5z"/>
</g>
</svg>
