<?xml version="1.0" encoding="utf-8"?>
<!-- Generator: Adobe Illustrator 27.6.1, SVG Export Plug-In . SVG Version: 6.00 Build 0)  -->
<svg version="1.1" id="Vrstva_1" xmlns="http://www.w3.org/2000/svg" xmlns:xlink="http://www.w3.org/1999/xlink" x="0px" y="0px"
	 viewBox="0 0 241.5 338.7" style="enable-background:new 0 0 241.5 338.7;" xml:space="preserve">
<style type="text/css">
	.st0{fill:#C6CBC0;}
	.st1{fill:#707C62;}
</style>
<path class="st0" d="M241.1,121.2v2.8c-0.6,20.5-7.1,40.4-18.3,57.6L121,338.6L18.7,181.3C7.4,164.1,0.9,144,0.4,123.4v-2.8
	C0.4,53.5,55.3-0.8,122.7,0.2C188.3,1.2,241.4,55.5,241.1,121.2z"/>
<path class="st1" d="M191.8,77.5l-5.9-3.3c-6.4-3.1-6.4-9.8-12.8-18.5c-4.8-6.6-12.2-10.5-21.2-11.5c-9.1-0.9-16.4,0.9-21.6,5.4
	c-6.9,5.9-8.1,14.6-8.3,18.1c-0.2,4.7,0.4,19.7,0.7,25.9c0,0.3-0.2,0.5-0.4,0.5l-24.6,1.3c-9.1,0.5-18.3-0.3-27.2-2.3l-20.8-4.7v3.5
	c0,0.5,1,52.6,44.7,63.8v7c0,3.5,2.4,6.5,5.7,7.4c-1.5,1.8-2.5,4.1-2.5,6.7c0,3.1,1.4,5.9,3.6,7.8c-2.2,1.9-3.6,4.7-3.6,7.8
	c0,3,1.3,5.7,3.4,7.6c-2.1,1.9-3.4,4.6-3.4,7.6c0,1.7,0.4,3.4,1.2,4.8H72.2l1.4,3.7c1.1,3,1.2,6.4,0.2,9.4l-1.4,4.2h80.8h4.2
	l-1.7-3.8c-1.3-3.1-1.3-6.6,0-9.6l1.7-3.8h-27c0.8-1.4,1.2-3.1,1.2-4.8c0-3-1.3-5.7-3.4-7.6c2.1-1.9,3.4-4.6,3.4-7.6
	c0-3.1-1.4-5.9-3.6-7.8c2.2-1.9,3.6-4.7,3.6-7.8c0-2.6-0.9-5-2.6-6.8c3.1-1,5.3-3.9,5.3-7.3v-9c11.4-5.5,18.3-14,21.1-18
	c6.8-9.7,9.8-17.7,11.6-23.6c1.6-5,1.7-13.9,1.6-17.5L191.8,77.5z M98,100.9l16.3-0.9c-0.9,3.7-3.1,11.3-7.8,16.3
	c-3.3,3.5-10.5,8.4-22.3,2.5C77.3,115.4,74,105,72.7,99.3C81.1,100.8,89.5,101.4,98,100.9z M149.4,217.9c-0.4,2.1-0.4,4.3,0,6.4
	H79.6c0.3-2.1,0.3-4.3,0-6.4H149.4z M108.1,187.5h13.1c2.7,0,4.8,2.2,4.8,4.9s-2.2,4.9-4.8,4.9h-13.1c-2.7,0-4.9-2.2-4.9-4.9
	S105.4,187.5,108.1,187.5z M103.2,176.8c0-2.7,2.2-4.9,4.9-4.9h13.1c2.7,0,4.8,2.2,4.8,4.9s-2.2,4.8-4.8,4.8h-13.1
	C105.4,181.7,103.2,179.5,103.2,176.8z M108.1,202.8h13.1c2.7,0,4.8,2.2,4.8,4.8c0,2.5-1.8,4.5-4.2,4.8c-0.2,0-0.5,0.1-0.7,0.1H108
	c-0.2,0-0.5,0-0.7-0.1c-2.4-0.3-4.2-2.4-4.2-4.8C103.2,204.9,105.4,202.8,108.1,202.8z M128.7,162.8c0,1.2-1,2.2-2.2,2.2h-24.4
	c-1.2,0-2.1-1-2.1-2.2v-5.5c4.5,1,8.7,1.4,12.6,1.4c6,0,11.4-1,16.1-2.6V162.8z M162.8,93.9c0.2,3,0.3,11.9-1.1,16.5
	c-1.7,5.5-4.5,13-10.9,22.1c-2.4,3.4-8.2,10.6-17.6,15.5c-1.6,0.8-3.3,1.6-5.1,2.2c-7.5,2.8-16.9,3.9-28.2,1.3
	c-1.2-0.3-2.5-0.6-3.8-1c-0.5-0.1-1-0.3-1.5-0.4c-15.8-4.5-27.3-15.4-33.9-32.4c-3.6-9.1-4.8-17.7-5.2-22.3L66.9,98
	c1,5.5,4.6,20.7,14.8,25.8c4.4,2.2,8.8,3.3,12.9,3.3c6,0,11.5-2.4,15.9-7c6.4-6.8,8.8-16.9,9.5-20.4l2.6-0.2c3.3-0.2,5.8-3,5.6-6.2
	c-0.2-4.8-0.9-20.8-0.7-25.4c0.2-2.8,1.1-9.6,6.4-14.2c4.1-3.5,10-4.9,17.5-4.1c7.6,0.8,13.4,3.9,17.4,9.3c6,8.2,4.5,13.9,12.4,18.9
	l-18.5,14.3L162.8,93.9z"/>
</svg>
