<?xml version="1.0" encoding="utf-8"?>
<!-- Generator: Adobe Illustrator 27.6.1, SVG Export Plug-In . SVG Version: 6.00 Build 0)  -->
<svg version="1.1" id="Vrstva_1" xmlns="http://www.w3.org/2000/svg" xmlns:xlink="http://www.w3.org/1999/xlink" x="0px" y="0px"
	 viewBox="0 0 241.5 338.7" style="enable-background:new 0 0 241.5 338.7;" xml:space="preserve">
<style type="text/css">
	.st0{fill:#C6CBC0;}
	.st1{fill:#707C62;}
</style>
<path class="st0" d="M241.1,121.3c0,0.9,0,1.9,0,2.8c-0.6,20.5-7.1,40.4-18.3,57.6L121,338.7L18.7,181.4
	C7.4,164.2,0.9,144.1,0.4,123.5c0-0.9,0-1.9,0-2.8C0.4,53.6,55.3-0.7,122.7,0.3C188.3,1.3,241.4,55.6,241.1,121.3z"/>
<path class="st1" d="M202.8,92.4c-3.7-9.2-11-16.4-20.2-20.1c-11.3-4.5-22.4-3.9-31.6,0.2c-4.7-20.2-26.4-33.9-49.2-25
	c-8.5,3.3-15.3,10-18.6,18.5c-10,24.8,7.1,48.5,30.2,50.3l-1.1,84.5H75.5l-0.8-39.2c16.7-1.9,28.6-19.5,20.6-37.7
	c-2.3-5.2-6.4-9.4-11.6-11.8c-19.3-8.8-38.2,5.2-38.2,23.4c0,13.4,10.1,24.4,23,26l-1,39.3H45.8l0.3,0.8c0.6,1.9,0.6,3.9,0,5.7
	l-0.3,1h145.4l-0.6-1.2c-0.8-1.5-0.8-3.3-0.1-4.8l0.7-1.5h-20.5l-0.9-53.5C195,145.4,213.6,119.4,202.8,92.4z M74.4,148.5l8-9h-0.1
	c-1-0.4-1.8-1.1-2.3-2.1l-5.7,6.4L74,128.4l-1.4,0.4c-0.6,0.2-1.2,0.2-1.8,0l-1.4-0.4L69.1,141l-7.5-6.7l0,0c-0.4,1-1.2,1.8-2.1,2.4
	l9.5,8.5l0,0l-0.2,8.6c-11.7-1.9-19.8-14.7-13.4-27.6c1.6-3.2,4.2-5.8,7.4-7.3c13.9-6.7,27.6,3.3,27.6,16.5
	c0,9.3-6.9,17.1-15.8,18.4L74.4,148.5z M118.7,102.1l8.1-9l0,0c-1-0.5-1.8-1.2-2.4-2.1l-5.7,6.4l-0.2-11.6l-0.2,0.1
	c-0.7,0.2-1.4,0.3-2.1,0.3c-0.8,0-1.6-0.1-2.3-0.4l-0.1,9.1L106,88l0,0c-0.5,1-1.2,1.8-2.1,2.4l9.9,8.8l-0.1,9.6
	c-18.3-1.7-31.6-20.9-23-40.7c2.7-6.1,7.6-10.9,13.8-13.4c19-7.9,37.3,4.4,39.9,21.8c-9.4,6.7-15.8,17.6-16.4,29.9l0,0
	c-2.8,1.3-5.8,2.1-8.9,2.4L118.7,102.1z M162.4,200.8h-41.8l-1.6-84.5c3.2-0.3,6.3-0.9,9.2-2c2.7,17.7,17.4,31.5,35.5,33
	L162.4,200.8z M169.7,139.8l-0.2-11.9l7.6-8.5l-1.2-0.6c-0.2-0.1-0.4-0.3-0.6-0.5l-0.6-1.1l-5.2,5.9l-0.3-16.8l-0.8,0.2
	c-1,0.2-2.1,0.2-3.1,0l-0.7-0.2l-0.3,15.1l-8-7.2v0.1c-0.3,1-1.1,1.9-2.1,2.3l10.1,9l0,0l-0.3,14.1c-15.2-1.5-27.3-13.7-28.5-29
	c-0.1-0.8-0.1-1.6-0.1-2.5c0-2.7,0.3-5.3,1-7.8c1.3-5.2,4-9.9,7.5-13.7c2.4-2.5,5.1-4.7,8.2-6.3c7.9-4.3,17.8-5.2,28-1.1
	c6.9,2.8,12.5,8.2,15.5,15C205.1,116.4,190.2,137.9,169.7,139.8z"/>
</svg>
