<?xml version="1.0" encoding="utf-8"?>
<!-- Generator: Adobe Illustrator 27.5.0, SVG Export Plug-In . SVG Version: 6.00 Build 0)  -->
<svg version="1.1" id="Vrstva_1" xmlns="http://www.w3.org/2000/svg" xmlns:xlink="http://www.w3.org/1999/xlink" x="0px" y="0px"
	 viewBox="0 0 241.5 338.7" style="enable-background:new 0 0 241.5 338.7;" xml:space="preserve">
<style type="text/css">
	.st0{fill:#707C62;}
	.st1{fill:#FFFFFF;}
</style>
<g>
	<path class="st0" d="M241.1,121.3c0,0.9,0,1.9,0,2.8c-0.6,20.5-7.1,40.4-18.3,57.6L121,338.7L18.7,181.4
		C7.4,164.2,0.9,144.1,0.4,123.5c0-0.9,0-1.9,0-2.8C0.4,53.6,55.3-0.7,122.7,0.3C188.3,1.3,241.4,55.6,241.1,121.3z"/>
	<g>
		<path class="st1" d="M203.5,110c-0.1,0-12-2.1-24.2-2.8c-5.2-0.3-9.8-0.3-13.6,0c-11.1,0.9-21,4-28.8,8.8
			c-0.9-5.2-2.9-10.5-6-15.8c-8.4-14-25.7-23.8-47.4-26.8c-4.5-0.6-9.9-0.9-16.3-0.9c-14.6,0-28.9,1.6-29.4,1.7l-4.5,0.5l0.2,4.5
			c0,1.2,1.3,28.3,6.5,45.3c6.4,21,18.8,36.5,34,42.6c5.7,2.3,11.4,3.4,16.8,3.4l0,0c5.1,0,9.9-1,14.2-2.9v-0.1c0,0,0.1,0,0.2,0
			c2.3-12.1,2.2-15.3,0.4-24.7c-4-21.1-24.9-33.6-35-38.2c8.9,7.1,26.1,18.5,23.5,48c-0.4,4.7-1.1,8-1.1,8.1
			c-0.7,0.1-1.4,0.1-2.1,0.1c-4.3,0-8.7-0.9-13.3-2.7c-12.4-5-22.8-18.2-28.3-36.4c-3.6-11.9-5.3-29.9-5.8-38.3
			c5.3-0.5,14.6-1.2,23.8-1.2c5.9,0,10.9,0.3,15,0.8c18.7,2.6,33.5,10.7,40.4,22.2c3.8,6.4,5.5,12.8,5,18.6c-1,1.1-2,2.3-2.8,3.6
			c-10.3,15.1-8.6,31.4,4.4,42.6c0.2-0.8,0.4-1.5,0.6-2.3c1.1-3,2.3-5.4,3.6-7.5c-6.8-7.6-7.1-17.6-0.4-27.4
			c6-8.9,18.2-14.6,33.5-15.9c1.6-0.1,3.5-0.2,5.5-0.2s4.3,0.1,6.7,0.2c7.1,0.4,14.3,1.3,18.4,1.9c-0.9,6.6-3,20.8-6.4,30
			c-5.3,14.4-14.2,24.6-24.3,28c-3.7,1.2-7.3,1.8-10.6,1.6c-0.3,0-0.6-0.1-0.9-0.1c-0.1-1.1-0.4-3.2-0.4-5.8
			c-0.6-22.3,12.1-31.1,19.6-36.4c0.5-0.4,1-0.7,1.5-1l6.4-4.5l-7.3,2.8c-6.1,2.3-26.4,11.5-31.1,30.4c-1.9,7.6-2.2,10.2-0.8,20.6
			l0.1,0.5l0.5,0.3c3.6,1.8,7.6,2.9,11.9,3.2c0.6,0,1.3,0.1,1.9,0.1c4,0,8.2-0.7,12.4-2.1c13-4.4,24.1-16.7,30.5-33.9
			c5.1-13.9,7.4-36.1,7.5-37.1l0.5-4.6L203.5,110L203.5,110z"/>
	</g>
</g>
</svg>
