<?xml version="1.0" encoding="utf-8"?>
<!-- Generator: Adobe Illustrator 27.6.1, SVG Export Plug-In . SVG Version: 6.00 Build 0)  -->
<svg version="1.1" id="Vrstva_1" xmlns="http://www.w3.org/2000/svg" xmlns:xlink="http://www.w3.org/1999/xlink" x="0px" y="0px"
	 viewBox="0 0 241.5 338.7" style="enable-background:new 0 0 241.5 338.7;" xml:space="preserve">
<style type="text/css">
	.st0{fill:#C6CBC0;}
	.st1{fill:#707C62;}
</style>
<path class="st0" d="M241.1,121.2c0,0.9,0,1.9,0,2.8c-0.6,20.5-7.1,40.4-18.3,57.6L121,338.6L18.7,181.3
	C7.4,164.1,0.9,144,0.4,123.4c0-0.9,0-1.9,0-2.8C0.4,53.5,55.3-0.8,122.7,0.2C188.3,1.2,241.4,55.5,241.1,121.2z"/>
<g>
	<path class="st1" d="M109.6,81.4l-1.2-1c-1.2-1-2.6-1.6-4.2-1.9l-1.5-0.2c1.5-3.4,3.8-6.4,6.6-8.8c4-3.5,8.3-4.9,11.2-5.5l-0.1,1.5
		c-0.1,1.5,0.2,3.1,0.9,4.4l0.7,1.4c-2,0.4-5.1,1.5-7.9,3.9C112.3,76.9,110.7,79,109.6,81.4z"/>
	<circle class="st1" cx="127.7" cy="67.2" r="3"/>
	<path class="st1" d="M194.1,149.1c0-11.6-23.7-16.9-45.6-16.9c-3.6,0-7,0.1-10.4,0.4l15.4-27.6c10-17.9,4.3-40.2-12.7-49.7
		c-8.3-4.6-18-5.5-27.2-2.6S96.7,62,91.8,70.6l-21.5,38.5l0,0L52.5,141c-4.8,8.7-6.2,18.6-3.8,27.9c2.4,9.4,8.3,17.2,16.5,21.8
		c5,2.8,10.7,4.3,16.5,4.3c8.9,0,17.6-3.4,24.5-9.6c2.2,2.1,5.8,4.2,11.5,5.9c8.3,2.6,19.2,4,30.7,4c11.6,0,22.5-1.4,30.7-4
		c12.3-3.9,14.9-9.1,14.9-12.9c0-0.1,0-0.3,0-0.4c0-0.1,0-0.2,0-0.3v-27.9l0,0C194.1,149.6,194.1,149.4,194.1,149.1z M140,140
		c0.2,0,0.4,0,0.6,0c0.6,0,1.2-0.1,1.9-0.1c0.3,0,0.6,0,1,0c0.6,0,1.2,0,1.9-0.1c0.4,0,0.7,0,1.1,0c0.3,0,0.7,0,1,0s0.7,0,1,0
		c4.4,0,8.4,0.2,12.1,0.6l-34.1,13.2l-4.7,1.8c-0.2,0-0.3-0.1-0.5-0.1c-0.2-0.1-0.5-0.1-0.7-0.2c-8-2.4-10-5.1-10.1-5.8v-0.1
		c0-0.1,0-0.2,0.1-0.3v-0.1l0,0c0,0,0-0.1,0.1-0.1c0.1-0.2,0.2-0.4,0.4-0.6l0.1-0.1c0.1-0.1,0.1-0.1,0.2-0.2
		c0.1-0.1,0.2-0.2,0.3-0.2c0.5-0.4,1.2-0.9,2-1.3c0.1-0.1,0.3-0.2,0.4-0.2c0.5-0.3,1-0.5,1.6-0.8c0.1-0.1,0.3-0.1,0.4-0.2
		c0.2-0.1,0.3-0.1,0.5-0.2c0.3-0.1,0.6-0.3,1-0.4c0.2-0.1,0.4-0.2,0.6-0.2c0.2-0.1,0.4-0.2,0.6-0.2c0.2-0.1,0.5-0.2,0.7-0.2
		c0.7-0.2,1.4-0.5,2.2-0.7c0.2-0.1,0.5-0.1,0.7-0.2c0.8-0.2,1.6-0.4,2.4-0.6c0.3-0.1,0.7-0.2,1-0.2c0.2,0,0.4-0.1,0.6-0.1
		c0.3-0.1,0.7-0.1,1-0.2c0.4-0.1,0.7-0.1,1.1-0.2c0.2,0,0.4-0.1,0.6-0.1c0.3-0.1,0.7-0.1,1-0.2c0.3-0.1,0.7-0.1,1.1-0.2
		c0.6-0.1,1.3-0.2,2-0.3c0.2,0,0.4-0.1,0.7-0.1l0,0c0.2,0,0.5-0.1,0.7-0.1c0.8-0.1,1.5-0.2,2.3-0.2C137.7,140.2,138.8,140.1,140,140
		z M98.3,74.2c3.9-7,10.1-12.1,17.4-14.4c7.3-2.3,14.9-1.6,21.3,2c13.4,7.5,17.8,25.2,9.8,39.5L129,133.2l-48.6-27.1L98.3,74.2z
		 M102.8,149.1c0,0.2,0,0.4,0,0.7l0,0v27.9c0,0.1,0,0.2,0,0.3s0,0.1,0,0.2c-0.5,0.5-1,1-1.5,1.5c-5.5,5-12.5,7.8-19.6,7.8
		c-4.6,0-8.9-1.1-12.9-3.3c-6.5-3.6-11-9.7-12.9-17.1c-1.9-7.5-0.8-15.5,3.1-22.4l17.8-31.9l41.7,23.3c-0.3,0.1-0.6,0.2-0.8,0.3
		C105.4,140.1,102.8,145.4,102.8,149.1z M148.4,187.9c-21,0-33.8-4.8-37.2-7.9c-0.6-0.6-0.9-1.1-0.9-1.5v-0.1v-0.9v-0.1V159
		c1.1,0.6,2.2,1.1,3.5,1.7c1.1,0.5,2.3,0.9,3.6,1.3c1.2,0.4,2.4,0.7,3.7,1.1c8.1,2.1,18,3.1,27.3,3.1c14.2,0,29.3-2.3,38.1-7.1v19
		v0.4v0.1C186.6,181.2,173.2,187.9,148.4,187.9z M186.6,149.2c-0.1,0.7-2.1,3.4-10.1,5.8c-7.5,2.3-17.4,3.5-28,3.5
		c-4.4,0-8.6-0.2-12.6-0.6l38.9-15.1C182.5,144.9,186.6,147.6,186.6,149.2L186.6,149.2z"/>
</g>
</svg>
