<?xml version="1.0" encoding="utf-8"?>
<!-- Generator: Adobe Illustrator 27.6.1, SVG Export Plug-In . SVG Version: 6.00 Build 0)  -->
<svg version="1.1" id="Vrstva_1" xmlns="http://www.w3.org/2000/svg" xmlns:xlink="http://www.w3.org/1999/xlink" x="0px" y="0px"
	 viewBox="0 0 241.5 338.7" style="enable-background:new 0 0 241.5 338.7;" xml:space="preserve">
<style type="text/css">
	.st0{fill:#C6CBC0;}
	.st1{fill:#707C62;}
</style>
<path class="st0" d="M241.1,121.2c0,0.9,0,1.9,0,2.8c-0.6,20.5-7.1,40.4-18.3,57.6L121,338.6L18.7,181.3
	C7.4,164.1,0.9,144,0.4,123.4c0-0.9,0-1.9,0-2.8C0.4,53.5,55.3-0.8,122.7,0.2C188.3,1.2,241.4,55.5,241.1,121.2z"/>
<g>
	<path class="st1" d="M119.6,179c-7.6,0-15.2-0.7-22.7-2.2l-20.1-3.9c-6-1.2-10.2-6.7-9.7-12.8L73,80.9c0.8-10.7,9.8-19,20.5-19
		c0,0,0,0,0.1,0l53.8,0.1c10.7,0,19.7,8.4,20.5,19.2l5.4,78.9c0.4,6.1-3.8,11.6-9.8,12.7l-21.9,4.1C134.3,178.3,126.9,179,119.6,179
		z M93.5,66.9c-8.1,0-14.9,6.3-15.5,14.4l-5.9,79.2c-0.3,3.6,2.2,6.8,5.7,7.5l20.1,3.9c14.2,2.8,28.5,2.8,42.7,0.1l21.9-4.1
		c3.5-0.7,6-3.9,5.8-7.5l-5.4-78.9c-0.6-8.1-7.4-14.5-15.5-14.5L93.5,66.9C93.6,66.9,93.5,66.9,93.5,66.9z"/>
	<path class="st1" d="M119.8,126.7c-4.8,0-9.6-0.3-14.4-0.9l-12.8-1.5c-2.6-0.3-4.7-1.4-6-3c-0.9-1.1-1.3-2.4-1.1-3.7l3.8-30.9
		c0.6-5,6.6-8.8,14-8.7l34.2,0.1c7.4,0,13.4,3.8,13.9,8.8l3.4,30.8c0.4,3.4-2.6,6.2-7.1,6.7l-13.9,1.6
		C129.1,126.5,124.5,126.7,119.8,126.7z M103.2,82.9c-5,0-8.7,2.3-9,4.3l-3.8,30.9c0.1,0.2,1,1,2.7,1.2l12.8,1.5
		c9,1.1,18.2,1.1,27.2,0.1l13.9-1.6c1.8-0.2,2.7-1,2.8-1.2l-3.4-30.8c-0.2-2.1-4-4.3-8.9-4.4H103.2
		C103.3,82.9,103.3,82.9,103.2,82.9z"/>
	<path class="st1" d="M92.1,159.3c-5.2,0-9.4-4.2-9.4-9.4s4.2-9.4,9.4-9.4s9.4,4.2,9.4,9.4S97.3,159.3,92.1,159.3z M92.1,145.5
		c-2.4,0-4.4,2-4.4,4.4s2,4.4,4.4,4.4s4.4-2,4.4-4.4S94.6,145.5,92.1,145.5z"/>
	<path class="st1" d="M148.8,159.3c-5.2,0-9.4-4.2-9.4-9.4s4.2-9.4,9.4-9.4s9.4,4.2,9.4,9.4C158.1,155.1,153.9,159.3,148.8,159.3z
		 M148.8,145.5c-2.4,0-4.4,2-4.4,4.4s2,4.4,4.4,4.4s4.4-2,4.4-4.4C153.1,147.5,151.2,145.5,148.8,145.5z"/>
	<rect x="108.9" y="147.2" class="st1" width="23.2" height="5"/>
	<path class="st1" d="M68,197.4L68,197.4c-0.6-1.7-1.9-3-3.5-3.5l0,0l9-9h88l-10.1-10.1l3.5-3.5l22.1,22.1l0,0
		c-1.7,0.4-3,1.8-3.5,3.4v0.1l-7.1-7.1H75.5L68,197.4z"/>
	
		<rect x="71.6" y="178" transform="matrix(0.7071 -0.7071 0.7071 0.7071 -103.8342 110.3366)" class="st1" width="19.3" height="5"/>
	<polygon class="st1" points="125,66.7 117.1,66.7 108.1,51.7 112.4,49.1 120,61.7 122,61.7 129,49.1 133.4,51.5 	"/>
	<path class="st1" d="M91.5,56.5L91.5,56.5c-0.9-1.2-0.6-2.8,0.6-3.6c3.1-2,8.9-5.3,15.7-6.4c9-1.4,23.2-0.7,32.3,1.7
		c4.8,1.3,8,3,9.8,4.3c1.3,0.9,1.4,2.9,0.1,4l0,0c-0.9,0.7-2.1,0.8-3,0.1c-1.4-1-4-2.4-8.3-3.6c-8.4-2.2-21.9-2.9-30.2-1.6
		c-5.8,0.9-11,3.9-13.7,5.6C93.7,57.8,92.3,57.5,91.5,56.5z"/>
</g>
</svg>
