<?xml version="1.0" encoding="utf-8"?>
<!-- Generator: Adobe Illustrator 27.6.1, SVG Export Plug-In . SVG Version: 6.00 Build 0)  -->
<svg version="1.1" id="Vrstva_1" xmlns="http://www.w3.org/2000/svg" xmlns:xlink="http://www.w3.org/1999/xlink" x="0px" y="0px"
	 viewBox="0 0 241.5 338.7" style="enable-background:new 0 0 241.5 338.7;" xml:space="preserve">
<style type="text/css">
	.st0{fill:#C6CBC0;}
	.st1{fill:#707C62;}
</style>
<path class="st0" d="M241.1,121.2c0,0.9,0,1.9,0,2.8c-0.6,20.5-7.1,40.4-18.3,57.6L121,338.6L18.7,181.3
	C7.4,164.1,0.9,144,0.4,123.4c0-0.9,0-1.9,0-2.8C0.4,53.5,55.3-0.8,122.7,0.2C188.3,1.2,241.4,55.5,241.1,121.2z"/>
<g>
	<path class="st1" d="M167.8,188.4H73.6c-7.5,0-13.7-6.1-13.7-13.7v-62.6l4.9-4.9l44.5-44.9c2.9-2.9,6.7-4.5,10.7-4.5l0,0
		c4,0,7.8,1.6,10.7,4.4l50.8,50.8v61.6C181.5,182.3,175.4,188.4,167.8,188.4z M67.5,115.3v59.5c0,3.4,2.8,6.2,6.2,6.2h94.2
		c3.4,0,6.2-2.8,6.2-6.2v-58.5l-48.6-48.6c-1.4-1.4-3.3-2.2-5.4-2.2l0,0c-2,0-4,0.8-5.4,2.3L67.5,115.3z"/>
	<path class="st1" d="M126.5,165.3h-11.4c-3.2,0-5.8-2.6-5.8-5.8v-13.3H96c-3.2,0-5.8-2.6-5.8-5.8v-11.5c0-3.2,2.6-5.8,5.8-5.8h13.3
		v-13.3c0-3.2,2.6-5.8,5.8-5.8h11.4c3.2,0,5.8,2.6,5.8,5.8v13.3h13.3c3.2,0,5.8,2.6,5.8,5.8v11.4c0,3.2-2.6,5.8-5.8,5.8h-13.3v13.3
		C132.3,162.7,129.7,165.3,126.5,165.3z M116.7,157.8h8.1v-13.3c0-3.2,2.6-5.8,5.8-5.8h13.3v-8.1h-13.3c-3.2,0-5.8-2.6-5.8-5.8
		v-13.3h-8.1v13.3c0,3.2-2.6,5.8-5.8,5.8H97.6v8.1h13.3c3.2,0,5.8,2.6,5.8,5.8C116.7,144.5,116.7,157.8,116.7,157.8z"/>
</g>
</svg>
