<?xml version="1.0" encoding="utf-8"?>
<!-- Generator: Adobe Illustrator 27.6.1, SVG Export Plug-In . SVG Version: 6.00 Build 0)  -->
<svg version="1.1" id="Vrstva_1" xmlns="http://www.w3.org/2000/svg" xmlns:xlink="http://www.w3.org/1999/xlink" x="0px" y="0px"
	 viewBox="0 0 241.5 338.7" style="enable-background:new 0 0 241.5 338.7;" xml:space="preserve">
<style type="text/css">
	.st0{fill:#C6CBC0;}
	.st1{fill:#707C62;}
</style>
<g>
	<path class="st0" d="M120.9,0.1C54.3,0.1,0.4,54.1,0.4,120.6v2.8c0.5,20.6,7,40.7,18.3,57.9L121,338.6l101.8-157
		c11.2-17.2,17.7-37.1,18.3-57.6v-2.8c0.3-65.7-52.8-120-118.4-121C122.1,0.2,121.5,0.1,120.9,0.1"/>
</g>
<path class="st1" d="M188.9,172.2l-3.6-5.6c-0.4-1-0.4-2.1,0.1-3c4.7-8.4,9.8-23.9,9.8-42.3c0-46.6-37.9-74.4-74.4-74.4
	c-18.8,0-37.4,7-51,19.1C59,75.5,46.3,92.6,46.3,120.1c0,18.8,5.3,34.8,9.8,42.8c0.5,0.9,0.5,2.1,0,3.1l-3.7,7.6
	c-1.4,2.9-1.3,6.4,0.4,9.2c0.1,0.1,0.2,0.2,0.3,0.4l11.7,13.6c1.5,2.2,3.8,3.7,6.4,4.1c2.6,0.4,5.2-0.3,7.2-1.9l15.7-8.5
	c0.2-0.1,0.4-0.2,0.5-0.4c3.3-2.8,4.2-7.5,2.3-11.3c-0.5-1-1.1-2.1-1.7-3.3c-5.6-10.8-17.4-33.2-17.4-48.9c0-12.7,3.3-24.2,9.3-32.5
	c7.5-10.3,18.8-15.5,33.6-15.5c14.9,0,26.2,5.2,33.6,15.5c6,8.3,9.3,19.8,9.3,32.5c0,15.4-11.3,36.8-17.3,48.2
	c-0.8,1.5-1.5,2.8-2.1,4c-2,3.9-1,8.5,2.3,11.3c0.1,0.1,0.2,0.2,0.3,0.2l12.9,8.6c1.7,1.4,3.8,2.1,5.9,2.1c0.5,0,0.9,0,1.4-0.1
	c2.6-0.4,4.9-1.8,6.3-4l14.8-14.6c0.2-0.2,0.3-0.3,0.4-0.5c1.7-2.7,1.9-6.3,0.4-9.2C189.1,172.4,189,172.3,188.9,172.2z
	 M183.7,178.2L169,192.8c-0.2,0.2-0.3,0.3-0.4,0.5c-0.5,0.8-1.4,1.4-2.3,1.5c-1,0.2-1.9-0.1-2.7-0.8c-0.1-0.1-0.2-0.2-0.3-0.2
	l-12.9-8.6c-1.1-1-1.4-2.6-0.7-3.9c0.6-1.1,1.3-2.4,2-3.9c6.3-11.9,18-34.1,18-51c0-13.9-3.7-26.7-10.5-36
	c-8.5-11.8-21.8-18-38.5-18c-16.6,0-30,6.2-38.5,18c-6.7,9.3-10.5,22.1-10.5,36c0,17.2,11.7,39.7,18,51.7c0.6,1.2,1.2,2.3,1.7,3.2
	c0.7,1.3,0.4,2.8-0.6,3.9l-15.7,8.5c-0.2,0.1-0.4,0.2-0.5,0.4c-0.8,0.6-1.7,0.9-2.7,0.8c-1-0.2-1.8-0.7-2.3-1.5
	c-0.1-0.1-0.2-0.2-0.3-0.4l-11.6-13.6c-0.5-1-0.6-2.1,0-3.1l3.7-7.6c1.4-2.8,1.3-6.1-0.2-8.7c-0.9-1.6-9-16.6-9-39.8
	c0-43.6,35.3-67.2,68.4-67.2c42.8,0,68.4,34.8,68.4,68.4c0,22.3-7.5,36.7-9,39.4c-1.5,2.7-1.6,5.9-0.2,8.7c0.1,0.1,0.1,0.2,0.2,0.3
	l3.6,5.6C184.2,176.2,184.2,177.3,183.7,178.2z M94.2,62.5c-11.1,4.7-20.5,12.2-27,21.7c-0.9,1.4-0.6,3.2,0.8,4.2
	c0.5,0.4,1.1,0.5,1.7,0.5c1,0,1.9-0.5,2.5-1.3C78,79.1,86.5,72.3,96.5,68c1.5-0.6,2.2-2.4,1.6-3.9C97.5,62.6,95.7,61.9,94.2,62.5z
	 M62.5,121.7c0-1.7-1.4-3-3.1-2.9c-1.7,0-3,1.4-2.9,3.1c0.3,17.2,5.5,30.7,8.5,36c0.6,1,1.6,1.5,2.6,1.5c0.5,0,1-0.1,1.5-0.4
	c1.4-0.8,2-2.6,1.1-4.1C67.5,150.1,62.8,137.7,62.5,121.7z M64.4,109.6c2,0,3.6-1.6,3.6-3.6s-1.6-3.6-3.6-3.6c-2,0-3.6,1.6-3.6,3.6
	S62.4,109.6,64.4,109.6z M120.8,56.1c-2.2,0-4.1,1.8-4.1,4.1s1.8,4.1,4.1,4.1s4.1-1.8,4.1-4.1S123,56.1,120.8,56.1z M173.8,88.4
	c1.4-0.9,1.7-2.8,0.8-4.2c-6.5-9.5-15.9-16.9-27-21.7c-1.5-0.6-3.3,0.1-3.9,1.6c-0.6,1.5,0.1,3.3,1.6,3.9
	c10.1,4.3,18.5,11,24.4,19.6c0.6,0.8,1.5,1.3,2.5,1.3C172.6,88.9,173.2,88.7,173.8,88.4z M182.2,118.7c-1.6,0-3,1.3-3.1,2.9
	c-0.3,16-5,28.4-7.7,33.2c-0.8,1.4-0.3,3.3,1.1,4.1c0.5,0.3,1,0.4,1.5,0.4c1,0,2.1-0.5,2.6-1.5c3-5.3,8.1-18.8,8.5-36
	C185.2,120.1,183.9,118.8,182.2,118.7z M173.5,105.8c0,2,1.6,3.6,3.6,3.6s3.6-1.6,3.6-3.6s-1.6-3.6-3.6-3.6S173.5,103.9,173.5,105.8
	z"/>
</svg>
