<?xml version="1.0" encoding="utf-8"?>
<!-- Generator: Adobe Illustrator 27.6.1, SVG Export Plug-In . SVG Version: 6.00 Build 0)  -->
<svg version="1.1" id="Vrstva_1" xmlns="http://www.w3.org/2000/svg" xmlns:xlink="http://www.w3.org/1999/xlink" x="0px" y="0px"
	 viewBox="0 0 241.5 338.7" style="enable-background:new 0 0 241.5 338.7;" xml:space="preserve">
<style type="text/css">
	.st0{fill:#C6CBC0;}
	.st1{fill:#707C62;}
	.st2{fill:none;}
</style>
<path class="st0" d="M241.1,121.2c0,0.9,0,1.9,0,2.8c-0.6,20.5-7.1,40.4-18.3,57.6L121,338.6L18.7,181.3
	C7.4,164.1,0.9,144,0.4,123.4c0-0.9,0-1.9,0-2.8C0.4,53.5,55.3-0.8,122.7,0.2C188.3,1.2,241.4,55.5,241.1,121.2z"/>
<g>
	<path class="st1" d="M85.8,236.8c-1.5,0-3.1-0.5-4.5-1.5l-6.1-4.3c-3.2-2.3-5.1-7-4.7-11.9l6.7-90.3c0.6-7.8-2.5-15.5-8.5-21.2
		c-6.7-6.4-10.4-17.2-10.4-30.3c0-14.4,5.1-23.1,9.4-27.9c4.9-5.4,11.5-8.8,17.3-8.8c10.8,0,26.7,11.7,26.7,36.7
		c0,12.9-3.5,23.4-9.8,29.8l0,0c-5.5,5.5-8.3,13.1-7.7,20.7l6.7,91.2c0.4,4.9-1.5,9.6-4.6,11.9l-5.9,4.3
		C88.9,236.3,87.4,236.8,85.8,236.8z M85,48.2c-6,0-19.2,7.3-19.2,29.2c0,10.9,3,19.9,8.1,24.9c7.6,7.2,11.5,17.1,10.8,27.2
		L78,219.7c-0.2,2.7,0.8,4.7,1.6,5.2l6.1,4.3l0.1,0.1c0,0,0.1,0,0.1-0.1l5.9-4.3c0.8-0.6,1.8-2.5,1.6-5.2l-6.7-91.2
		c-0.7-9.8,2.9-19.5,9.9-26.5l0,0c4.9-5,7.6-13.7,7.6-24.5C104.2,56.8,91.7,48.2,85,48.2z"/>
	<path class="st2" d="M145.4,102.3c7.6,7.2,11.5,17.1,10.8,27.2l-6.7,90.2c-0.2,2.7,0.8,4.7,1.6,5.2l6.1,4.3l0.1,0.1
		c0,0,0.1,0,0.1-0.1l5.9-4.3c0.8-0.6,1.8-2.5,1.6-5.2l-6.7-91.2c-0.7-9.8,2.9-19.5,9.9-26.5c0.1-0.1,3-3.3,5.5-26.2
		c1.3-11.7,1.9-23.4,2.1-29.7c-2.2,0.3-4.5,0.6-6.9,0.8l-2.9,45.4l-7.5-0.5l2.8-44.4c-1.4,0-2.9,0.1-4.4,0.1c-1.6,0-3.3,0-4.9-0.1
		l2.8,44.4l-7.5,0.5l-2.9-45.4c-2.5-0.2-4.9-0.5-7.1-0.9c0.1,6.3,0.9,18.2,2.3,30.1C142.3,99,145.3,102.1,145.4,102.3z"/>
	<path class="st1" d="M173.6,75.7c-2.5,22.9-5.4,26.1-5.5,26.2c-7,7.1-10.6,16.7-9.9,26.5l6.7,91.2c0.2,2.7-0.8,4.7-1.6,5.2
		l-5.9,4.3l-0.1,0.1c0,0-0.1,0-0.1-0.1l-6.1-4.3c-0.8-0.5-1.8-2.5-1.6-5.2l6.7-90.2c0.7-10-3.2-19.9-10.8-27.2
		c-0.1-0.1-3.1-3.2-5.8-26.2c-1.4-11.9-2.1-23.8-2.3-30.1c-2.7-0.5-5.3-1-7.5-1.6c0,5.8,0.8,19.3,2.4,32.6c3.1,26,6.7,29.4,8.1,30.8
		c6,5.7,9,13.4,8.5,21.2l-6.7,90.3c-0.4,5,1.5,9.6,4.7,11.9l6.1,4.3c1.4,1,2.9,1.5,4.5,1.5s3.1-0.5,4.5-1.5l5.9-4.3
		c3.2-2.3,5-7,4.6-11.9l-6.7-91.2c-0.6-7.6,2.3-15.2,7.7-20.7c1.3-1.3,4.8-4.8,7.6-30.6c1.4-13,2.1-26.2,2.2-32.1
		c-2.3,0.6-4.8,1.1-7.5,1.5C175.5,52.3,174.9,64.1,173.6,75.7z"/>
	<path class="st1" d="M154.8,91.8L152,47.4c-2.6-0.1-5.1-0.3-7.6-0.5l2.9,45.4L154.8,91.8z"/>
	<path class="st1" d="M165.9,92.3l2.9-45.4c-2.4,0.2-5,0.4-7.6,0.5l-2.8,44.4L165.9,92.3z"/>
</g>
</svg>
