<?xml version="1.0" encoding="utf-8"?>
<!-- Generator: Adobe Illustrator 27.6.1, SVG Export Plug-In . SVG Version: 6.00 Build 0)  -->
<svg version="1.1" id="Vrstva_1" xmlns="http://www.w3.org/2000/svg" xmlns:xlink="http://www.w3.org/1999/xlink" x="0px" y="0px"
	 viewBox="0 0 241.5 338.7" style="enable-background:new 0 0 241.5 338.7;" xml:space="preserve">
<style type="text/css">
	.st0{fill:#C6CBC0;}
	.st1{fill:#707C62;}
</style>
<path class="st0" d="M241.1,121.3c0,0.9,0,1.9,0,2.8c-0.6,20.5-7.1,40.4-18.3,57.6L121,338.7L18.7,181.4
	C7.4,164.2,0.9,144.1,0.4,123.5c0-0.9,0-1.9,0-2.8C0.4,53.6,55.3-0.7,122.7,0.3C188.3,1.3,241.4,55.6,241.1,121.3z"/>
<path class="st1" d="M197.7,175.9c-27.5-23.6-56.5-51.2-57.7-56.5V99.9l0,0c-0.1-17.1-8.2-36.3-19.1-47.2
	C112.4,44.2,100.4,39,88,38.3c-13-0.7-24.8,3.6-33.2,12c-17,17-15.8,47.9,2.4,66.1c10.9,10.9,30.1,19,47.2,19.1l0,0H124
	c0.9,0,6.8,1.4,31.2,28.3c13.1,14.4,25,29.1,25.1,29.2c0.5,0.7,1.3,1.1,2.2,1.1c0.1,0,0.1,0,0.2,0c0.8,0,1.6-0.3,2.1-0.9l13-13
	c0.6-0.6,0.9-1.4,0.9-2.2C198.7,177.2,198.3,176.5,197.7,175.9z M122.6,129.5l-0.4-0.8l0.8,0.8H122.6z M120.5,126.3
	c-16.9,8.4-45.5-0.6-59-14.1c-16-16-17.1-42.9-2.4-57.6c7.2-7.2,17.4-10.8,28.7-10.2c11,0.6,21.5,5.2,29,12.7
	c13.5,13.5,22.5,42.1,14.1,59L120.5,126.3z M134.1,129.5h-8.4l8.4-8.4V129.5z M134.1,118.5l-0.8-0.8l0.8,0.4V118.5z M182.9,186.8
	c-4-4.9-13.3-15.9-23.2-26.9c-11.5-12.7-19.2-20-24.4-24.3h1.8c1.7,0,3-1.3,3-3v-2.8c4.3,5,11.7,12.6,24.3,24.4
	c11,10.3,22.2,20.1,27,24.2L182.9,186.8z M121.9,78.2l-4.4,4.4l-8.8-8.8l4.4-4.4l-4.2-4.2l-4.4,4.4l-8.8-8.8l4.4-4.4l-4.2-4.2
	l-4.5,4.4L87,52.2l-4.2,4.2l4.4,4.4l-8.8,8.8l-11-10.9l-4.2,4.2l10.9,10.9l-8.8,8.8l-4.4-4.4l-4.2,4.2l4.4,4.4l-4.4,4.4l4.2,4.2
	l4.4-4.4l8.8,8.8l-4.4,4.4l4.3,4.4l4.4-4.4l8.8,8.8l-4.4,4.4l4.2,4.2l4.4-4.4l4.4,4.4l4.2-4.2l-4.4-4.4l8.8-8.8l10.9,10.9l4.2-4.2
	L108.6,100l8.8-8.8l4.4,4.4l4.2-4.2l-4.4-4.4l4.4-4.4L121.9,78.2z M91.4,65l8.8,8.8l-8.8,8.8l-8.8-8.8L91.4,65z M78.4,95.7l-8.8-8.8
	l8.8-8.8l8.8,8.8L78.4,95.7z M91.4,108.7l-8.8-8.8l8.8-8.8l8.8,8.8L91.4,108.7z M104.4,95.7l-8.8-8.8l8.8-8.8l8.8,8.8L104.4,95.7z
	 M65.3,149.1c-12.4,0-22.6,10.1-22.6,22.6c0,12.4,10.1,22.6,22.6,22.6s22.6-10.1,22.6-22.6S77.8,149.1,65.3,149.1z M52.3,181.8
	c-1.1-1.4-1.9-2.9-2.5-4.5c0-0.1-0.1-0.2-0.1-0.4c-0.1-0.3-0.2-0.5-0.2-0.8c-0.1-0.2-0.1-0.5-0.2-0.7c-0.1-0.2-0.1-0.4-0.1-0.7
	c-0.1-0.3-0.1-0.6-0.1-1c0-0.2,0-0.3-0.1-0.5c0-0.5-0.1-1-0.1-1.6c0-0.5,0-1,0.1-1.6c0-0.2,0-0.3,0.1-0.5c0-0.3,0.1-0.7,0.1-1
	c0-0.2,0.1-0.4,0.1-0.7c0.1-0.2,0.1-0.5,0.2-0.7c0.1-0.3,0.2-0.5,0.2-0.8c0-0.1,0.1-0.2,0.1-0.4c0.6-1.6,1.4-3.1,2.5-4.5
	c2.3,2.9,3.5,6.4,3.5,10.1C55.8,175.4,54.6,178.9,52.3,181.8z M73.9,185.8c-2.5,1.5-5.4,2.4-8.6,2.4c-3.1,0-6.1-0.9-8.6-2.4
	c3.3-4,5.1-9,5.1-14.1s-1.8-10.1-5.1-14.1c2.5-1.5,5.4-2.4,8.6-2.4c3.1,0,6.1,0.9,8.6,2.4c-3.3,4-5.1,9-5.1,14.1
	S70.7,181.8,73.9,185.8z M81.6,168.6c0.1,0.3,0.1,0.6,0.1,1c0,0.2,0,0.3,0.1,0.5c0,0.5,0.1,1,0.1,1.6c0,0.5,0,1-0.1,1.6
	c0,0.2,0,0.3-0.1,0.5c0,0.3-0.1,0.7-0.1,1c0,0.2-0.1,0.4-0.1,0.7c-0.1,0.2-0.1,0.5-0.2,0.7c-0.1,0.3-0.2,0.5-0.2,0.8
	c0,0.1-0.1,0.3-0.1,0.4c-0.6,1.6-1.4,3.1-2.5,4.5c-2.3-2.9-3.5-6.4-3.5-10.1c0-3.7,1.2-7.2,3.5-10.1c1.1,1.4,1.9,2.9,2.5,4.5
	c0,0.1,0.1,0.3,0.1,0.4c0.1,0.3,0.2,0.5,0.2,0.8c0.1,0.2,0.1,0.5,0.2,0.7C81.5,168.2,81.5,168.4,81.6,168.6z"/>
</svg>
