<?xml version="1.0" encoding="utf-8"?>
<!-- Generator: Adobe Illustrator 27.6.1, SVG Export Plug-In . SVG Version: 6.00 Build 0)  -->
<svg version="1.1" id="Vrstva_1" xmlns="http://www.w3.org/2000/svg" xmlns:xlink="http://www.w3.org/1999/xlink" x="0px" y="0px"
	 viewBox="0 0 241.5 338.7" style="enable-background:new 0 0 241.5 338.7;" xml:space="preserve">
<style type="text/css">
	.st0{fill:#C6CBC0;}
	.st1{fill:#707C62;}
</style>
<g>
	<path class="st0" d="M120.9,0.1C54.3,0.1,0.4,54.1,0.4,120.6v2.8c0.5,20.6,7,40.7,18.3,57.9L121,338.6l101.8-157
		c11.2-17.2,17.7-37.1,18.3-57.6v-2.8c0.3-65.7-52.8-120-118.4-121C122.1,0.2,121.5,0.1,120.9,0.1"/>
</g>
<path class="st1" d="M188.7,95.7l-0.4-1l0,0c-11.5-27.2-38-44.8-67.6-44.8c-2.9,0-5.8,0.2-8.8,0.5l-1.8,0.2h-0.3
	c-1.1,0.2-2.3,0.4-3.5,0.6c-6.3,1.2-12.4,3.3-18.2,6.2c-7.3,3.6-14,8.4-19.7,14.3c-0.7,0.7-1.3,1.4-2,2.1l-0.1,0.1
	c-0.2,0.2-0.4,0.5-0.7,0.7C53.7,88,47.2,105.2,47.2,123.2c0,20.6,8.7,40.4,24,54.3c1.9,1.7,3.9,3.3,5.9,4.8c1.4,1,2.8,2,4.3,2.9
	l1.8,1.1l0,0c4.8,2.8,9.8,5.1,15.1,6.8l0.9,0.3l0,0c0.1,0,0.1,0,0.2,0.1c6.8,2,13.9,3.1,21.1,3.1c24.9,0,47.9-12.5,61.5-33.4
	c5-7.7,8.5-16.1,10.3-25.1c0.2-0.8,0.3-1.5,0.4-2.3l0.1-0.3c0.1-0.6,0.2-1.2,0.3-1.8c0.5-3.4,0.7-7,0.7-10.5
	C194.1,113.7,192.3,104.5,188.7,95.7L188.7,95.7z M105.2,86.7c0-0.3,0.1-0.7,0.1-1s0.1-0.6,0.1-0.9s0.1-0.7,0.1-1s0.1-0.6,0.1-0.9
	c0-0.2,0.1-0.5,0.1-0.8s0.1-0.7,0.2-1c0.4-2.6,1-5.1,1.7-7.6c1.6-5.4,3.8-10.5,6.7-15.4c0.1-0.2,0.2-0.4,0.4-0.6
	c2-0.2,4.1-0.3,6.1-0.3c22.5,0,43,11.3,55,29.7l0,0c-0.3-0.1-0.6-0.3-0.9-0.4c-0.6-0.3-1.2-0.6-1.8-0.8c-0.3-0.1-0.6-0.3-0.9-0.4
	c-0.9-0.4-1.9-0.8-2.8-1.1c-0.6-0.2-1.3-0.5-1.9-0.7c-0.6-0.2-1.3-0.4-1.9-0.6c-0.6-0.2-1.3-0.4-1.9-0.6c-0.6-0.2-1.2-0.3-1.9-0.5
	c-0.4-0.1-0.7-0.2-1.1-0.2c-0.3-0.1-0.7-0.2-1-0.2c-0.6-0.1-1.2-0.2-1.8-0.4c-0.4-0.1-0.9-0.2-1.3-0.2c-0.3,0-0.6-0.1-0.8-0.1
	c-0.7-0.1-1.3-0.2-2-0.3c-0.3,0-0.6-0.1-0.9-0.1c-0.7-0.1-1.4-0.2-2.1-0.2c-0.3,0-0.7-0.1-1-0.1s-0.6,0-0.9-0.1h-0.5
	c-0.4,0-0.9,0-1.3-0.1h-2.9c-10.5,0-20.6,2.2-30,6.4c-0.4,0.2-0.8,0.4-1.2,0.6c-0.7,0.4-1.5,0.7-2.2,1.1c-0.5,0.2-0.9,0.5-1.4,0.7
	c-0.7,0.4-1.3,0.7-2,1.1s-1.5,0.9-2.2,1.3v-2c0-0.5,0-1,0.1-1.5C105.2,87.3,105.2,87,105.2,86.7L105.2,86.7L105.2,86.7z M71.7,88.7
	c0-0.5,0-0.9,0.1-1.4c0-0.5,0-1,0.1-1.5v-0.1c0-0.4,0.1-0.8,0.1-1.2V84c0-0.3,0.1-0.6,0.1-0.9c0-0.2,0-0.4,0.1-0.6
	c0-0.4,0.1-0.7,0.1-1.1c0-0.2,0.1-0.4,0.1-0.6c0-0.3,0.1-0.6,0.1-0.8s0.1-0.4,0.1-0.7c0.1-0.3,0.1-0.7,0.2-1V78l0,0
	c5.4-5.7,11.7-10.4,18.7-13.9c4.3-2.1,8.9-3.8,13.6-5c-0.3,0.5-0.5,1-0.8,1.6c-0.2,0.5-0.4,0.9-0.6,1.4s-0.4,1-0.7,1.5v0.1
	c-0.2,0.5-0.4,1-0.6,1.5s-0.4,1-0.6,1.5s-0.3,0.9-0.5,1.4l0,0c-0.1,0.2-0.1,0.4-0.2,0.6c-0.1,0.3-0.2,0.6-0.3,0.9
	c0,0.1-0.1,0.2-0.1,0.3c-0.2,0.5-0.3,1-0.4,1.5c-1.9,6.6-2.9,13.5-2.9,20.4v3.5c0,0.3,0,0.7,0.1,1v1c0,0.4,0.1,0.7,0.1,1.1
	c0,0.5,0.1,1.1,0.2,1.6c0,0.2,0,0.4,0.1,0.6c0.1,0.5,0.1,1,0.2,1.6l0,0c0.1,0.6,0.2,1.2,0.3,1.8v0.1c0.1,0.6,0.2,1.2,0.3,1.7v0.1
	c0.1,0.6,0.2,1.1,0.4,1.7c0.1,0.6,0.3,1.1,0.4,1.7c0,0.1,0,0.2,0.1,0.2c0.1,0.5,0.3,1,0.4,1.5c0,0.1,0,0.2,0.1,0.3
	c0.1,0.5,0.3,1,0.4,1.5c0.4,1.2,0.8,2.4,1.2,3.6c0.1,0.4,0.3,0.8,0.5,1.2c0.3,0.8,0.6,1.5,0.9,2.2c0.2,0.5,0.5,1.1,0.7,1.6
	c0.4,0.8,0.8,1.7,1.2,2.5c0.1,0.3,0.3,0.6,0.4,0.8c0.2,0.5,0.5,1,0.8,1.5c0,0.1,0.1,0.1,0.1,0.2l0,0c0.1,0.1,0.1,0.2,0.2,0.3l0,0
	c0.1,0.1,0.1,0.2,0.2,0.4c0.2,0.4,0.5,0.9,0.7,1.3c0.2,0.3,0.4,0.6,0.5,0.9c0.2,0.3,0.3,0.6,0.5,0.8c0.2,0.3,0.3,0.6,0.5,0.8
	c0.2,0.3,0.4,0.6,0.5,0.8c0.4,0.6,0.7,1.1,1.1,1.6s0.8,1.1,1.1,1.6c0.2,0.3,0.5,0.7,0.7,1c0.2,0.2,0.3,0.4,0.5,0.6
	c0.6,0.8,1.2,1.5,1.8,2.3c0.2,0.2,0.4,0.4,0.6,0.7l0.1,0.1c-0.5,1.5-1,2.9-1.6,4.4c-0.1,0.3-0.3,0.7-0.4,1c-0.2,0.4-0.4,0.9-0.6,1.3
	c-0.1,0.2-0.2,0.4-0.3,0.7c-0.1,0.2-0.2,0.3-0.2,0.5c-0.4,0.9-0.9,1.8-1.4,2.8c-0.9-0.4-1.8-0.8-2.6-1.2c-0.3-0.2-0.6-0.3-0.9-0.5
	c-0.1,0-0.2-0.1-0.3-0.1c-0.3-0.2-0.6-0.3-1-0.5c-0.1-0.1-0.3-0.1-0.4-0.2c-0.2-0.1-0.5-0.3-0.7-0.4c-0.4-0.2-0.7-0.4-1.1-0.6h-0.1
	c-0.4-0.2-0.8-0.5-1.2-0.7c-1.3-0.8-2.6-1.7-3.9-2.6c-0.3-0.2-0.5-0.4-0.8-0.6c-0.5-0.4-1-0.8-1.5-1.2c-0.3-0.2-0.5-0.4-0.8-0.6
	c-0.2-0.1-0.3-0.3-0.5-0.4c-0.2-0.2-0.5-0.4-0.7-0.6c-0.7-0.6-1.5-1.3-2.2-2c-3.8-3.6-7.3-7.7-10.1-12.1
	c-6.9-10.7-10.6-23.1-10.6-35.8C71.7,89.8,71.7,89.2,71.7,88.7L71.7,88.7z M114.9,126.8L114.9,126.8c0.1,0,0.2-0.1,0.2-0.1
	c0.2-0.1,0.4-0.2,0.6-0.3c0.2-0.1,0.3-0.1,0.5-0.2c0.4-0.2,0.8-0.4,1.2-0.5l0,0c0.3-0.1,0.6-0.2,0.9-0.3l0,0c0,0.4-0.1,0.9-0.1,1.3
	c0,0.3-0.1,0.6-0.1,0.9c0,0.4-0.1,0.8-0.2,1.2c-0.1,0.5-0.1,1.1-0.2,1.6l0,0c0,0.2,0,0.3-0.1,0.5l0,0c-0.2-0.3-0.5-0.7-0.7-1
	s-0.4-0.6-0.6-0.8c-0.2-0.3-0.5-0.7-0.7-1s-0.5-0.7-0.7-1C115,126.9,115,126.8,114.9,126.8L114.9,126.8z M89.8,174.1
	c-0.3,0.2-0.6,0.4-1,0.6c-1.6,1.1-3.3,2-4.9,2.9l0,0c-0.7-0.5-1.4-1-2.1-1.5c-1.9-1.4-3.7-2.8-5.3-4.4C62.8,159.2,55,141.5,55,123
	c0-12,3.2-23.5,9.2-33.6v0.8c0,14.2,4.1,28,11.8,39.9c3.2,4.9,7,9.5,11.3,13.5c0.4,0.3,0.7,0.7,1.1,1c0.3,0.3,0.6,0.5,0.8,0.7
	c0.1,0.1,0.3,0.2,0.4,0.3c0.2,0.2,0.4,0.4,0.7,0.6c0.4,0.3,0.8,0.7,1.2,1c0.2,0.2,0.4,0.3,0.6,0.5c0.3,0.2,0.5,0.4,0.8,0.6
	c1.2,0.9,2.4,1.8,3.7,2.7c0.4,0.3,0.8,0.5,1.2,0.8c0.4,0.2,0.7,0.5,1.1,0.7c0.1,0.1,0.2,0.1,0.3,0.2c0.2,0.1,0.4,0.3,0.6,0.4
	c0.4,0.2,0.7,0.4,1.1,0.6c0.1,0,0.1,0.1,0.2,0.1c0.4,0.2,0.8,0.4,1.1,0.6c1.5,0.8,3.1,1.6,4.7,2.4c-0.3,0.5-0.6,0.9-1,1.4
	c-0.1,0.1-0.2,0.3-0.3,0.4c-2.3,3.1-4.8,6-7.6,8.6c-0.1,0.1-0.3,0.3-0.4,0.4c-0.2,0.2-0.5,0.5-0.8,0.7c-0.2,0.2-0.4,0.4-0.6,0.5
	c-0.4,0.3-0.7,0.6-1.1,1c-0.3,0.2-0.5,0.4-0.8,0.6c-0.3,0.3-0.7,0.5-1,0.8c-0.2,0.2-0.4,0.3-0.7,0.5c-0.4,0.3-0.7,0.5-1.1,0.8
	c-0.3,0.2-0.6,0.5-0.9,0.7C90.4,173.7,90.1,173.9,89.8,174.1L89.8,174.1z M114.7,180.6c-0.4,0.2-0.7,0.4-1.1,0.5
	c-0.3,0.1-0.6,0.3-0.9,0.4c0,0-0.1,0-0.1,0.1c0,0-0.1,0-0.1,0.1c-0.2,0.1-0.5,0.2-0.7,0.3c-0.3,0.1-0.6,0.2-0.9,0.4
	c-0.1,0-0.2,0.1-0.3,0.1c-0.3,0.1-0.6,0.3-1,0.4h-0.2c-0.3,0.1-0.5,0.2-0.8,0.3c-0.4,0.2-0.8,0.3-1.2,0.4H107c-0.1,0-0.1,0-0.2,0.1
	c-0.3,0.1-0.5,0.2-0.8,0.3h-0.3c-0.4,0.1-0.8,0.2-1.2,0.4h-0.1c-0.5,0.1-0.9,0.3-1.4,0.4c-0.5,0.1-1,0.3-1.6,0.4
	c-0.5,0.1-1.1,0.2-1.6,0.4h-0.1c-2.9-1-5.8-2.2-8.6-3.6c0.5-0.3,0.9-0.6,1.4-0.9c0.5-0.3,0.9-0.6,1.4-0.9c3-2.1,5.9-4.4,8.6-6.8
	c0.3-0.2,0.5-0.5,0.8-0.8c4-3.8,7.5-8,10.6-12.6c0.2-0.3,0.4-0.6,0.6-0.9c0.4-0.6,0.8-1.2,1.2-1.9c0.2-0.2,0.3-0.5,0.4-0.8
	c0.2-0.3,0.3-0.5,0.4-0.8c0.4-0.8,0.9-1.6,1.3-2.4c1.1-2.1,2.1-4.3,3-6.5c0.1-0.3,0.3-0.6,0.4-1c0.1-0.3,0.2-0.6,0.4-1
	c0.1-0.2,0.2-0.5,0.3-0.7c0.2-0.6,0.5-1.3,0.7-1.9c0.1-0.4,0.2-0.7,0.4-1.1c0.1-0.4,0.2-0.7,0.3-1.1c0-0.1,0-0.1,0.1-0.2v-0.1
	c0-0.1,0.1-0.2,0.1-0.3v-0.2c0.1-0.2,0.1-0.4,0.2-0.7s0.1-0.4,0.2-0.7v-0.2c0.1-0.3,0.2-0.6,0.2-1c0.1-0.3,0.1-0.5,0.2-0.8
	c0.2-0.8,0.3-1.5,0.5-2.3c0.1-0.3,0.1-0.7,0.2-1c0.1-0.4,0.1-0.8,0.2-1.2s0.1-0.7,0.2-1.1c0-0.2,0.1-0.4,0.1-0.5
	c0-0.2,0.1-0.4,0.1-0.5c0-0.4,0.1-0.7,0.1-1.1l0.1-1.1l0.1-1.3c0-0.2,0-0.4,0.1-0.7l0.1-2.1v-0.3l0,0c0.2-0.1,0.5-0.1,0.7-0.2
	c0.1,0,0.2-0.1,0.3-0.1c0.4-0.1,0.7-0.2,1.1-0.3c0.4-0.1,0.7-0.2,1.1-0.2c0.4-0.1,0.8-0.2,1.2-0.2c0.3-0.1,0.6-0.1,0.9-0.2
	c0.2,0,0.5-0.1,0.7-0.1c0.3,0,0.6-0.1,0.9-0.1c0.4-0.1,0.8-0.1,1.1-0.2c0.4-0.1,0.8-0.1,1.1-0.1c0.4,0,0.8-0.1,1.3-0.1h0.3
	c0.3,0,0.6,0,0.9-0.1c0.3,0,0.5,0,0.8-0.1h1.2c0.5,0,1,0,1.5-0.1h5.3c0.3,0,0.5,0,0.8,0.1h0.5c0.3,0,0.5,0,0.8,0.1
	c0.4,0,0.9,0.1,1.3,0.1c0.3,0,0.7,0.1,1,0.1c0.4,0,0.8,0.1,1.2,0.2v3.2c0,0.4,0,0.7-0.1,1.1v0.5c0,0.2,0,0.5-0.1,0.7
	c-0.1,0.7-0.1,1.4-0.2,2.1v0.4c-0.1,0.5-0.1,1-0.2,1.4v0.2c0,0.2-0.1,0.4-0.1,0.6v0.2c0,0.2-0.1,0.4-0.1,0.6
	c-0.1,0.5-0.2,1.1-0.3,1.6c-0.1,0.4-0.2,0.8-0.3,1.3c-0.1,0.3-0.1,0.5-0.2,0.8c-0.1,0.3-0.2,0.7-0.2,1c0,0.1,0,0.2-0.1,0.2v0.1
	c-0.1,0.5-0.2,0.9-0.4,1.4l0,0c-0.1,0.5-0.3,1-0.4,1.5v0.1c-0.1,0.2-0.1,0.5-0.2,0.7c-0.1,0.3-0.2,0.5-0.3,0.8l0,0
	c-0.2,0.5-0.3,1-0.5,1.5s-0.4,1-0.6,1.5c-0.1,0.3-0.3,0.7-0.4,1c-0.1,0.1-0.1,0.3-0.2,0.4c-0.1,0.3-0.2,0.6-0.3,0.8
	c-0.1,0.3-0.2,0.5-0.4,0.8c-0.2,0.5-0.5,1-0.7,1.5c-0.1,0.3-0.2,0.5-0.4,0.7c-0.1,0.2-0.2,0.5-0.4,0.7c-0.2,0.3-0.3,0.7-0.5,1
	s-0.3,0.7-0.5,1c-0.4,0.6-0.7,1.3-1.1,1.9c-0.6,0.9-1.1,1.8-1.6,2.5c-0.3,0.5-0.6,0.9-0.9,1.3c-0.3,0.4-0.5,0.7-0.8,1.1
	c-0.2,0.3-0.4,0.5-0.6,0.8c0,0,0,0.1-0.1,0.1c-0.1,0.1-0.2,0.2-0.3,0.4l0,0c0,0,0,0.1-0.1,0.1c-0.1,0.1-0.1,0.2-0.2,0.2
	c-0.1,0.2-0.3,0.3-0.4,0.5c0,0.1-0.1,0.1-0.1,0.2s-0.1,0.1-0.1,0.2l0,0c-0.2,0.3-0.4,0.6-0.7,0.8c-0.1,0.2-0.3,0.3-0.4,0.5v0.1
	c-0.2,0.2-0.4,0.4-0.6,0.6c-0.1,0.1-0.2,0.2-0.3,0.4s-0.3,0.3-0.4,0.5c-0.1,0.2-0.3,0.3-0.4,0.5c-0.3,0.3-0.5,0.6-0.8,0.9
	c-0.2,0.2-0.4,0.4-0.6,0.6c-0.2,0.2-0.4,0.4-0.5,0.5c-0.7,0.7-1.4,1.4-2.1,2c-0.4,0.3-0.8,0.7-1.1,1c-0.4,0.3-0.7,0.6-1.1,0.9
	c-0.1,0.1-0.2,0.2-0.3,0.3c-0.2,0.2-0.4,0.3-0.6,0.5l-0.1,0.1c0,0-0.1,0-0.1,0.1c-0.2,0.2-0.4,0.3-0.6,0.5c-0.3,0.2-0.6,0.4-0.8,0.7
	c-0.3,0.3-0.7,0.5-1,0.8c-0.2,0.2-0.4,0.3-0.6,0.5s-0.5,0.3-0.7,0.5c-0.1,0.1-0.3,0.2-0.4,0.3c-0.3,0.2-0.6,0.4-0.9,0.6
	c-0.1,0.1-0.3,0.2-0.4,0.3c-0.3,0.2-0.6,0.4-0.8,0.5c-0.4,0.3-0.8,0.5-1.2,0.7c-0.1,0.1-0.2,0.1-0.3,0.2l0,0c-0.5,0.3-1,0.6-1.5,0.9
	c-0.1,0-0.2,0.1-0.3,0.1c-0.3,0.2-0.7,0.4-1.1,0.6c-0.1,0-0.2,0.1-0.2,0.1c-0.3,0.2-0.6,0.3-0.9,0.5
	C115.2,180.3,115,180.4,114.7,180.6C114.8,180.6,114.8,180.6,114.7,180.6L114.7,180.6z M185.2,136.5c-1.6,8-4.7,15.6-9.2,22.5
	c-12.2,18.8-32.8,30-55.2,30c-2,0-3.9-0.1-5.8-0.3c11-4.7,20.6-12,28.2-21.4c0.4-0.4,0.7-0.9,1.1-1.4c0.2-0.2,0.3-0.5,0.5-0.7
	s0.3-0.5,0.5-0.7c0.4-0.5,0.7-1,1.1-1.5c0.2-0.2,0.3-0.5,0.5-0.7c0.2-0.3,0.4-0.5,0.6-0.8c0.6-0.9,1.2-1.8,1.8-2.8
	c0.2-0.3,0.3-0.5,0.5-0.8s0.3-0.5,0.4-0.8c0.3-0.5,0.6-1,0.9-1.6c0.1-0.2,0.3-0.5,0.4-0.7c0.1-0.2,0.2-0.3,0.3-0.5
	c0.2-0.4,0.4-0.7,0.5-1.1c0.7-1.3,1.3-2.7,1.8-4.1c0.1-0.3,0.3-0.6,0.4-1c0.3-0.8,0.6-1.5,0.9-2.3c0.1-0.3,0.2-0.6,0.3-0.9
	c0.1-0.3,0.2-0.6,0.3-0.9c0.1-0.3,0.2-0.7,0.3-1s0.2-0.7,0.3-1c0-0.1,0.1-0.2,0.1-0.3c0.1-0.4,0.2-0.7,0.3-1.1
	c0.1-0.2,0.1-0.5,0.2-0.7v-0.2c0.1-0.2,0.1-0.4,0.2-0.7c0.1-0.3,0.2-0.6,0.2-0.9c0.1-0.4,0.2-0.7,0.2-1.1c0.1-0.4,0.2-0.9,0.3-1.3
	c0.1-0.4,0.2-0.8,0.2-1.2c0-0.2,0.1-0.4,0.1-0.6s0.1-0.5,0.1-0.7c0-0.1,0-0.3,0.1-0.4v-0.3c0-0.1,0-0.2,0.1-0.3c0-0.1,0-0.2,0.1-0.3
	c0-0.3,0.1-0.6,0.1-1c0-0.3,0.1-0.6,0.1-0.9c0-0.2,0.1-0.4,0.1-0.6v-0.1c0-0.2,0.1-0.5,0.1-0.7c0-0.4,0.1-0.8,0.1-1.2
	c0-0.5,0.1-0.9,0.1-1.4s0.1-0.9,0.1-1.4v-2l0,0c0.6,0.2,1.2,0.3,1.8,0.5c0.3,0.1,0.6,0.2,0.9,0.3c0.3,0.1,0.5,0.2,0.8,0.2h0.1
	c0.3,0.1,0.6,0.2,0.9,0.3c0.3,0.1,0.6,0.2,0.8,0.3c0.1,0,0.1,0,0.2,0.1h0.1c0.1,0,0.1,0,0.2,0.1c0.2,0.1,0.3,0.1,0.5,0.2
	c0.3,0.1,0.6,0.2,0.9,0.4c0.2,0.1,0.5,0.2,0.7,0.3c0.3,0.1,0.6,0.2,0.9,0.4c0.3,0.1,0.6,0.3,0.9,0.4c0.2,0.1,0.5,0.2,0.7,0.3
	c0.3,0.1,0.6,0.3,1,0.4c0.4,0.2,0.8,0.4,1.3,0.6c0.4,0.2,0.8,0.4,1.3,0.6c0.4,0.2,0.8,0.4,1.2,0.7c0.1,0.1,0.2,0.1,0.3,0.2
	c0.3,0.2,0.7,0.4,1,0.6l0,0l0.1,0.1c0.2,0.1,0.4,0.2,0.5,0.3c0.1,0,0.1,0.1,0.2,0.1c0.4,0.2,0.8,0.5,1.1,0.7c0.5,0.3,1,0.7,1.5,1
	s1,0.7,1.5,1.1c0.5,0.4,1,0.7,1.5,1.1c0.5,0.4,0.9,0.7,1.4,1.1l0.1,0.1C184.3,135.7,184.7,136,185.2,136.5
	C185.2,136.4,185.2,136.4,185.2,136.5L185.2,136.5L185.2,136.5z M186.4,127.8C186.4,127.8,186.3,127.8,186.4,127.8
	c-0.5-0.4-0.9-0.7-1.3-1l0,0c-0.4-0.3-0.8-0.6-1.3-0.9c0,0-0.1,0-0.1-0.1l-0.1-0.1c-0.3-0.2-0.6-0.4-0.9-0.6
	c-0.3-0.2-0.6-0.4-0.9-0.6c-0.3-0.2-0.5-0.3-0.8-0.5c-0.4-0.3-0.8-0.5-1.3-0.8c-0.4-0.2-0.8-0.5-1.2-0.7c-0.1-0.1-0.3-0.1-0.4-0.2
	c-0.4-0.2-0.8-0.4-1.2-0.7c-0.4-0.2-0.9-0.5-1.3-0.7c0,0-0.1,0-0.1-0.1c-0.3-0.1-0.6-0.3-0.9-0.4c-0.1,0-0.2-0.1-0.2-0.1
	c-0.3-0.1-0.6-0.3-0.8-0.4c-0.1,0-0.1,0-0.2-0.1c-0.4-0.2-0.7-0.3-1.1-0.5c-0.4-0.2-0.8-0.3-1.1-0.5c-0.4-0.2-0.7-0.3-1.1-0.4
	c-0.1,0-0.1-0.1-0.2-0.1c-0.3-0.1-0.6-0.3-1-0.4h-0.1c-0.3-0.1-0.7-0.3-1-0.4h-0.1c-0.3-0.1-0.6-0.2-0.8-0.3
	c-0.2-0.1-0.4-0.1-0.5-0.2c-0.3-0.1-0.6-0.2-0.9-0.3c-0.4-0.1-0.8-0.3-1.2-0.4s-0.8-0.2-1.2-0.3c-0.4-0.1-0.8-0.2-1.2-0.3
	c-0.4-0.1-0.8-0.2-1.2-0.3l0,0c-0.2-0.1-0.5-0.1-0.7-0.2c-0.3-0.1-0.5-0.1-0.7-0.2c-0.4-0.1-0.8-0.2-1.1-0.2H158
	c-0.2,0-0.4-0.1-0.6-0.1h-0.2c-0.2,0-0.4-0.1-0.5-0.1l0,0c-0.1,0-0.3-0.1-0.4-0.1c-0.2,0-0.3-0.1-0.5-0.1l0,0
	c-0.4-0.1-0.8-0.1-1.2-0.2l0,0c-0.5-0.1-1.1-0.2-1.6-0.2c-1.1-0.2-2.1-0.3-3.2-0.4c-0.3,0-0.7-0.1-1-0.1s-0.7-0.1-1-0.1
	c-0.5,0-1-0.1-1.5-0.1c-1.1-0.1-2.2-0.1-3.3-0.1h-1.5c-0.7,0-1.5,0-2.2,0.1c-0.4,0-0.8,0-1.2,0.1c-0.3,0-0.6,0-0.9,0.1h-0.1
	c-0.3,0-0.7,0.1-1,0.1c-0.9,0.1-1.9,0.2-2.8,0.3c-0.3,0-0.6,0.1-0.9,0.1c-0.5,0.1-1.1,0.2-1.6,0.2c-0.4,0.1-0.9,0.2-1.3,0.2
	c-0.6,0.1-1.2,0.2-1.7,0.3c-0.1,0-0.2,0-0.3,0.1c-0.2,0-0.4,0.1-0.6,0.1c-0.4,0.1-0.9,0.2-1.3,0.3c-0.4,0.1-0.9,0.2-1.3,0.3
	c-0.4,0.1-0.8,0.2-1.2,0.3c-0.4,0.1-0.8,0.2-1.2,0.4l0,0c-0.1,0-0.2,0.1-0.3,0.1l0,0c-0.1,0-0.2,0-0.3,0.1h-0.1
	c-0.6,0.2-1.2,0.4-1.8,0.6c-0.5,0.2-0.9,0.3-1.3,0.5c-0.5,0.2-1,0.4-1.6,0.6c-0.5,0.2-1,0.4-1.5,0.6s-1,0.4-1.5,0.7
	c-0.5,0.2-1,0.4-1.4,0.6c-0.2-0.4-0.4-0.8-0.6-1.2c-0.1-0.2-0.2-0.4-0.3-0.6c-0.1-0.3-0.3-0.6-0.4-0.9c-0.2-0.4-0.3-0.8-0.5-1.3
	c-0.1-0.2-0.2-0.4-0.2-0.6c-0.1-0.3-0.3-0.7-0.4-1c-0.1-0.2-0.1-0.3-0.2-0.5c-0.2-0.5-0.3-0.9-0.5-1.4s-0.3-1-0.5-1.5v-0.2
	c-0.1-0.4-0.3-0.9-0.4-1.3c0-0.1-0.1-0.2-0.1-0.4c-0.1-0.5-0.3-1-0.4-1.5v-0.1c-0.1-0.5-0.2-1-0.4-1.6c-0.1-0.4-0.2-0.8-0.3-1.2
	c-0.1-0.2-0.1-0.5-0.1-0.7c-0.1-0.3-0.1-0.7-0.2-1c-0.2-1.1-0.3-2.2-0.5-3.3l0,0c0.1-0.1,0.3-0.2,0.4-0.3c0.2-0.2,0.4-0.3,0.6-0.5
	s0.5-0.3,0.7-0.5c0.3-0.2,0.6-0.4,0.8-0.6c0.2-0.1,0.4-0.3,0.6-0.4c0.2-0.2,0.5-0.3,0.7-0.4c0.4-0.2,0.7-0.5,1.1-0.7
	c0.3-0.2,0.5-0.3,0.8-0.5s0.7-0.4,1-0.6c0.7-0.4,1.3-0.7,2-1.1c0.4-0.2,0.7-0.4,1.1-0.6c0.6-0.3,1.1-0.5,1.7-0.8
	c8.5-3.8,17.6-5.7,26.9-5.7h0.5c3.1,0,6.1,0.3,9.1,0.7c0.7,0.1,1.5,0.2,2.2,0.4c0.8,0.2,1.7,0.3,2.5,0.5c0.4,0.1,0.8,0.2,1.2,0.3
	c0.4,0.1,0.8,0.2,1.3,0.3c0.4,0.1,0.8,0.2,1.1,0.3c0.8,0.2,1.6,0.5,2.4,0.7c0.3,0.1,0.6,0.2,0.9,0.3c0.6,0.2,1.2,0.4,1.8,0.6
	c0.3,0.1,0.6,0.2,0.9,0.3c0.4,0.2,0.8,0.3,1.2,0.5c0.8,0.3,1.5,0.6,2.3,1c0.6,0.3,1.1,0.5,1.7,0.8c0.6,0.3,1.1,0.6,1.7,0.9
	c0.4,0.2,0.7,0.4,1.1,0.6c0.4,0.2,0.9,0.5,1.3,0.8c0.3,0.2,0.7,0.4,1,0.6c1,0.6,1.9,1.2,2.9,1.9c0.2,0.1,0.3,0.2,0.5,0.4
	c0.2,0.1,0.4,0.2,0.5,0.4l0,0c2.9,7.5,4.4,15.5,4.4,23.6C186.5,124.7,186.5,126.3,186.4,127.8L186.4,127.8z"/>
</svg>
