<?xml version="1.0" encoding="utf-8"?>
<!-- Generator: Adobe Illustrator 27.6.1, SVG Export Plug-In . SVG Version: 6.00 Build 0)  -->
<svg version="1.1" id="Vrstva_1" xmlns="http://www.w3.org/2000/svg" xmlns:xlink="http://www.w3.org/1999/xlink" x="0px" y="0px"
	 viewBox="0 0 241.5 338.7" style="enable-background:new 0 0 241.5 338.7;" xml:space="preserve">
<style type="text/css">
	.st0{fill:#C6CBC0;}
	.st1{fill:#707C62;}
</style>
<path class="st0" d="M241.1,121.2v2.8c-0.6,20.5-7.1,40.4-18.3,57.6L121,338.6L18.7,181.3C7.4,164.1,0.9,144,0.4,123.4v-2.8
	C0.4,53.5,55.3-0.8,122.7,0.2C188.3,1.2,241.4,55.5,241.1,121.2z"/>
<path class="st1" d="M206.4,93.2l-17.8-40.9c-1.2-2.6-4.2-3.8-6.9-2.7l-13.4,5.8c-1.3,0.5-2.3,1.6-2.8,2.9c-0.5,1.3-0.5,2.7,0.1,4
	l2.2,5c-0.5,0.1-1.1,0.2-1.6,0.5l-91.7,39.8c-3.5,1.5-5.1,5.6-3.6,9.2l0.4,1l-12,5.2l-1.3-3c-0.5-1.2-1.5-2.1-2.7-2.5
	c-1.2-0.5-2.5-0.5-3.7,0.1l-14.1,6.1c-2.4,1.1-3.5,3.9-2.5,6.3l9.7,22.4c0.5,1.2,1.5,2.1,2.7,2.5c0.6,0.2,1.2,0.3,1.8,0.3
	s1.3-0.1,1.9-0.4l14.1-6.1c1.2-0.5,2.1-1.5,2.6-2.6c0.5-1.2,0.4-2.5-0.1-3.7l-1.3-3l12.1-5.3l0.5,1c1.1,2.6,3.7,4.2,6.4,4.2
	c0.9,0,1.9-0.2,2.8-0.6l21-9.1c0.8,0.8,1.8,1.6,2.8,2.2l-39.7,80.6c2,0,3.9,0.9,5.2,2.4l0.2,0.3l39.7-80.6V216l0.2-0.1
	c1.9-0.8,4-0.8,5.8,0.1v-81.1l40.3,79.3c1.1-1.7,2.9-2.7,4.9-2.7h0.4L128.6,132c4.7-2.8,7.8-7.9,7.8-13.8c0-0.1,0-0.3,0-0.4
	l43.4-18.9c0.5-0.2,1-0.5,1.4-0.8l2.2,5c0.6,1.3,1.6,2.3,2.9,2.8c0.6,0.2,1.3,0.4,1.9,0.4c0.7,0,1.4-0.2,2.1-0.4l13.4-5.8
	c1.3-0.6,2.3-1.6,2.8-2.9C207,95.9,206.9,94.4,206.4,93.2z M49.8,148.9L41,128.7l11.9-5.2l8.8,20.2L49.8,148.9z M64.2,133.8
	l-2.3-5.4l11.9-5.2l2.3,5.4L64.2,133.8z M130.2,120.5c-1,4.4-5,7.7-9.7,7.7c-1.8,0-3.5-0.5-5-1.3c-1.9-1.1-3.3-2.7-4.2-4.7
	c-0.5-1.2-0.8-2.6-0.8-4c0-5.5,4.5-10,10-10c4.1,0,7.6,2.5,9.2,6c0.5,1.2,0.8,2.6,0.8,4C130.5,119,130.4,119.8,130.2,120.5z
	 M177.5,93.4l-42.4,18.4c-2.5-5.7-8.1-9.6-14.7-9.6c-8.8,0-16,7.2-16,16c0,2.3,0.5,4.4,1.3,6.4l-20,8.7c-0.3,0.1-0.6,0.1-0.7,0
	s-0.4-0.2-0.5-0.5l-8-18.5c-0.2-0.5,0-1,0.5-1.2l91.7-39.8c0.1,0,0.2-0.1,0.4-0.1c0.4,0,0.7,0.2,0.9,0.6l8,18.5
	C178.2,92.7,178,93.2,177.5,93.4z M188.7,100l-17.2-39.5l11.9-5.2l17.2,39.5L188.7,100z"/>
</svg>
