<?xml version="1.0" encoding="utf-8"?>
<!-- Generator: Adobe Illustrator 27.6.1, SVG Export Plug-In . SVG Version: 6.00 Build 0)  -->
<svg version="1.1" id="Vrstva_1" xmlns="http://www.w3.org/2000/svg" xmlns:xlink="http://www.w3.org/1999/xlink" x="0px" y="0px"
	 viewBox="0 0 241.5 338.7" style="enable-background:new 0 0 241.5 338.7;" xml:space="preserve">
<style type="text/css">
	.st0{fill:#C6CBC0;}
	.st1{fill:#707C62;}
</style>
<path class="st0" d="M241.1,121.2v2.8c-0.6,20.5-7.1,40.4-18.3,57.6L121,338.6L18.7,181.3C7.4,164.1,0.9,144,0.4,123.4v-2.8
	C0.4,53.5,55.3-0.8,122.7,0.2C188.3,1.2,241.4,55.5,241.1,121.2z"/>
<path class="st1" d="M86.5,176.9c-8.6,0-15.6,7-15.6,15.6s7,15.6,15.6,15.6s15.6-7,15.6-15.6S95.1,176.9,86.5,176.9z M86.5,201.3
	c-4.8,0-8.8-3.9-8.8-8.8s3.9-8.8,8.8-8.8s8.8,3.9,8.8,8.8C95.3,197.3,91.4,201.3,86.5,201.3z"/>
<path class="st1" d="M151.8,176.9c-8.6,0-15.6,7-15.6,15.6s7,15.6,15.6,15.6s15.6-7,15.6-15.6S160.4,176.9,151.8,176.9z
	 M151.8,201.3c-4.8,0-8.8-3.9-8.8-8.8s3.9-8.8,8.8-8.8s8.8,3.9,8.8,8.8C160.6,197.3,156.6,201.3,151.8,201.3z"/>
<path class="st1" d="M73.2,83.3c-2.2-6.2-4-10.8-4.9-12.4c-2.5-4.1-5.9-6.7-10.1-7.8c-5.5-1.5-16-0.2-17.1-0.1l0.5,1.4
	c0.5,1.5,0.7,3,0.6,4.6l-0.1,1.5c3.9-0.5,11.2-0.9,14.2-0.1c2.4,0.6,4.1,2.1,5.6,4.5c2.6,4.3,14.8,42.6,22.3,67.2
	c-1.3,3.7-3.1,10-2,15.5c1,5.1,4.2,9,9.3,11.2c1,0.4,2.3,1,26.5,1h12.6c17.6-0.1,35-0.4,35.2-0.4l-0.1-0.5c-0.6-2.2-0.6-4.6,0-6.8
	v-0.2c-25.2,0.4-66.5,0.7-71.4-0.1c-2.7-1.2-4.2-3-4.7-5.6c-0.6-2.9,0.1-6.6,1-9.6c12.9-1.3,71-7,74.8-7.7c3.3-0.7,9.3-2.7,12.7-8.9
	c2.3-4.3,8.4-32.1,10.2-40.5l1-4.5C189.3,85,73.2,83.3,73.2,83.3z M171.3,126.3c-1.9,3.5-5.5,4.7-7.5,5.1
	c-2.8,0.5-43.9,4.7-72.8,7.5c-2.6-8.6-9.6-31.1-15.2-48l104,1.4C176.3,108,172.4,124.1,171.3,126.3z"/>
</svg>
