<?xml version="1.0" encoding="utf-8"?>
<!-- Generator: Adobe Illustrator 27.6.1, SVG Export Plug-In . SVG Version: 6.00 Build 0)  -->
<svg version="1.1" id="Vrstva_1" xmlns="http://www.w3.org/2000/svg" xmlns:xlink="http://www.w3.org/1999/xlink" x="0px" y="0px"
	 viewBox="0 0 241.5 338.7" style="enable-background:new 0 0 241.5 338.7;" xml:space="preserve">
<style type="text/css">
	.st0{fill:#C6CBC0;}
	.st1{fill:#707C62;}
</style>
<path class="st0" d="M241.1,121.2c0,0.9,0,1.9,0,2.8c-0.6,20.5-7.1,40.4-18.3,57.6L121,338.6L18.7,181.3
	C7.4,164.1,0.9,144,0.4,123.4c0-0.9,0-1.9,0-2.8C0.4,53.5,55.3-0.8,122.7,0.2C188.3,1.2,241.4,55.5,241.1,121.2z"/>
<path class="st1" d="M203.6,94.6c-0.1-1.5-1.3-2.7-2.8-2.8c-17.9-1.1-34.3,3.2-48.1,12.4c-0.7-21.4-11.6-41.5-30.2-55.5
	c-1.1-0.8-2.5-0.8-3.6,0c-18.6,14-29.5,34.1-30.2,55.5c-13.7-9.1-30-13.4-47.9-12.3c-1.5,0.1-2.7,1.3-2.8,2.8
	c-1.4,23.3,6.2,43.9,21.9,59.7c15,15,35.3,23.4,56.3,23.4c1.5,0,3.1,0,4.6-0.1c1.6,0.1,3.1,0.1,4.6,0.1c21,0,41.2-8.4,56.3-23.4
	C197.4,138.6,205,117.9,203.6,94.6z M94.7,108.6L94.7,108.6c-0.1-0.8-0.1-1.5-0.1-2.1c0-19.6,9.5-38.3,26.1-51.6
	c16.6,13.3,26.1,32,26.1,51.6c0,0.7-0.1,1.4-0.1,2.2c0,0,0,0,0,0.1c-0.6,0.5-1.1,1-1.7,1.5c-0.3,0.3-0.7,0.6-1,0.8
	c-1,0.9-1.9,1.8-2.9,2.7c-0.6,0.6-1.1,1.1-1.6,1.7c-0.2,0.3-0.5,0.5-0.7,0.8c-0.3,0.3-0.5,0.6-0.8,0.9c-0.3,0.4-0.6,0.7-1,1.1
	c-0.1,0.2-0.3,0.3-0.4,0.5c-7.2,8.5-12.5,18.2-15.6,28.7c0,0.2-0.1,0.3-0.1,0.5c0,0.1-0.1,0.2-0.1,0.4c0-0.1,0-0.1,0-0.2
	c-0.1-0.4-0.3-0.9-0.4-1.3c-3.1-10.3-8.3-19.8-15.4-28.1c-0.1-0.1-0.2-0.3-0.4-0.4c-0.3-0.4-0.7-0.8-1-1.1c-0.2-0.3-0.5-0.5-0.7-0.8
	c-0.3-0.3-0.5-0.6-0.8-0.8c-0.5-0.5-1-1-1.5-1.6l-0.1-0.1c-0.9-0.9-1.9-1.8-2.8-2.7c-0.6-0.5-1.2-1.1-1.8-1.6
	C95.4,109.2,95.1,108.9,94.7,108.6z M64.1,150.1c-13.9-13.9-20.9-32-20.3-52.4c17.7-0.5,33.7,4.7,46.6,15.1c0.2,0.2,0.5,0.4,0.7,0.6
	c0.7,0.6,1.5,1.2,2.2,1.9c0.2,0.2,0.4,0.3,0.5,0.5c0.8,0.7,1.6,1.5,2.3,2.2c0.8,0.8,1.6,1.7,2.4,2.6c0.2,0.2,0.3,0.4,0.5,0.6
	c0.7,0.7,1.3,1.5,1.9,2.2c0.1,0.1,0.2,0.3,0.3,0.4c5.4,6.7,9.6,14.3,12.4,22.3c0,0.1,0.1,0.2,0.1,0.3c0.3,0.9,0.6,1.8,0.9,2.7
	c0.1,0.4,0.3,0.9,0.4,1.3c0.1,0.5,0.3,1,0.4,1.5c0.2,0.7,0.3,1.4,0.5,2.1l0,0c0.4,1.9,0.8,3.9,1.1,5.9c0,0.1,0,0.1,0,0.2
	c0.3,2.3,0.5,4.6,0.6,7c-0.1,1.5-0.1,3.1,0,4.6C97.8,172.1,78.4,164.3,64.1,150.1z M177.4,150.1c-14.3,14.3-33.7,22.1-53.6,21.6
	c0-1.5,0-3.1,0-4.6c0.1-2.4,0.3-4.8,0.6-7.2v-0.1c0.3-1.8,0.6-3.6,1-5.3c0-0.2,0.1-0.5,0.1-0.7c0.1-0.5,0.3-1.1,0.4-1.6
	c0.2-0.7,0.3-1.3,0.5-2c0.1-0.3,0.2-0.7,0.3-1c0.3-1,0.6-2,1-3.1l0,0c2.8-8.1,7-15.7,12.4-22.4c0.1-0.1,0.2-0.3,0.3-0.4
	c0.6-0.8,1.3-1.5,1.9-2.2c0.2-0.2,0.3-0.4,0.5-0.6c0.8-0.9,1.6-1.7,2.4-2.6c0.9-0.9,1.9-1.8,2.8-2.7c0.4-0.3,0.8-0.6,1.1-1
	c0.6-0.5,1.1-1,1.7-1.5c13-10.5,29-15.7,46.7-15.2C198.3,118.1,191.3,136.2,177.4,150.1z"/>
</svg>
